<svg xmlns="http://www.w3.org/2000/svg" viewBox="0 0 512 512" fill="none">
  <defs>
    <linearGradient id="faceFill" x1="480" y1="13" x2="480" y2="1292" gradientUnits="userSpaceOnUse">
      <stop offset="0" stop-color="#f7f9fa"/>
      <stop offset="0.48" stop-color="#eef1f2"/>
      <stop offset="1" stop-color="#eaedef"/>
    </linearGradient>
    <radialGradient id="foreheadGlow" cx="0" cy="0" r="1" gradientUnits="userSpaceOnUse" gradientTransform="translate(480 92) rotate(90) scale(185 360)">
      <stop offset="0" stop-color="#ffffff" stop-opacity="0.95"/>
      <stop offset="0.42" stop-color="#ffffff" stop-opacity="0.22"/>
      <stop offset="1" stop-color="#ffffff" stop-opacity="0"/>
    </radialGradient>
    <radialGradient id="cheekBlush" cx="0" cy="0" r="1" gradientUnits="userSpaceOnUse" gradientTransform="translate(0 0) scale(1)">
      <stop offset="0" stop-color="#f2c1c4" stop-opacity="0.9"/>
      <stop offset="1" stop-color="#f2c1c4" stop-opacity="0"/>
    </radialGradient>
    <linearGradient id="hairBlack" x1="154" y1="248" x2="806" y2="1304" gradientUnits="userSpaceOnUse">
      <stop offset="0" stop-color="#050507"/>
      <stop offset="0.45" stop-color="#121418"/>
      <stop offset="1" stop-color="#2f333a"/>
    </linearGradient>
    <filter id="blur6" x="-20%" y="-20%" width="140%" height="140%"><feGaussianBlur stdDeviation="6"/></filter>
    <filter id="blur10" x="-25%" y="-25%" width="150%" height="150%"><feGaussianBlur stdDeviation="10"/></filter>
    <filter id="blur14" x="-28%" y="-28%" width="156%" height="156%"><feGaussianBlur stdDeviation="14"/></filter>
    <filter id="blur20" x="-35%" y="-35%" width="170%" height="170%"><feGaussianBlur stdDeviation="20"/></filter>
    <clipPath id="faceClip"><path d="M 85.0 50.0 C 90.8 48.0, 107.5 41.5, 120.0 38.0 C 132.5 34.5, 143.3 31.8, 160.0 29.0 C 176.7 26.2, 196.7 23.0, 220.0 21.0 C 243.3 19.0, 273.3 17.7, 300.0 17.0 C 326.7 16.3, 350.0 17.7, 380.0 17.0 C 410.0 16.3, 446.7 13.0, 480.0 13.0 C 513.3 13.0, 550.0 16.3, 580.0 17.0 C 610.0 17.7, 633.3 16.3, 660.0 17.0 C 686.7 17.7, 716.7 19.0, 740.0 21.0 C 763.3 23.0, 783.3 26.0, 800.0 29.0 C 816.7 32.0, 827.5 35.3, 840.0 39.0 C 852.5 42.7, 863.5 44.2, 875.0 51.0 C 886.5 57.8, 901.3 68.5, 909.0 80.0 C 916.7 91.5, 917.8 106.7, 921.0 120.0 C 924.2 133.3, 925.8 143.3, 928.0 160.0 C 930.2 176.7, 932.2 196.7, 934.0 220.0 C 935.8 243.3, 937.8 273.3, 939.0 300.0 C 940.2 326.7, 940.8 353.3, 941.0 380.0 C 941.2 406.7, 940.7 433.3, 940.0 460.0 C 939.3 486.7, 938.2 513.3, 937.0 540.0 C 935.8 566.7, 935.2 593.3, 933.0 620.0 C 930.8 646.7, 927.5 673.3, 924.0 700.0 C 920.5 726.7, 917.7 753.3, 912.0 780.0 C 906.3 806.7, 899.5 833.3, 890.0 860.0 C 880.5 886.7, 871.2 913.3, 855.0 940.0 C 838.8 966.7, 814.8 993.3, 793.0 1020.0 C 771.2 1046.7, 748.7 1073.3, 724.0 1100.0 C 699.3 1126.7, 673.7 1156.7, 645.0 1180.0 C 616.3 1203.3, 572.8 1226.3, 552.0 1240.0 C 531.2 1253.7, 528.0 1255.7, 520.0 1262.0 C 512.0 1268.3, 508.7 1273.8, 504.0 1278.0 C 499.3 1282.2, 496.0 1284.7, 492.0 1287.0 C 488.0 1289.3, 484.0 1292.0, 480.0 1292.0 C 476.0 1292.0, 472.0 1289.3, 468.0 1287.0 C 464.0 1284.7, 460.7 1282.2, 456.0 1278.0 C 451.3 1273.8, 448.0 1268.3, 440.0 1262.0 C 432.0 1255.7, 429.0 1253.7, 408.0 1240.0 C 387.0 1226.3, 342.8 1203.3, 314.0 1180.0 C 285.2 1156.7, 259.7 1126.7, 235.0 1100.0 C 210.3 1073.3, 187.8 1046.7, 166.0 1020.0 C 144.2 993.3, 120.2 966.7, 104.0 940.0 C 87.8 913.3, 78.5 886.7, 69.0 860.0 C 59.5 833.3, 52.7 806.7, 47.0 780.0 C 41.3 753.3, 38.3 726.7, 35.0 700.0 C 31.7 673.3, 29.2 646.7, 27.0 620.0 C 24.8 593.3, 23.3 566.7, 22.0 540.0 C 20.7 513.3, 19.7 486.7, 19.0 460.0 C 18.3 433.3, 17.8 406.7, 18.0 380.0 C 18.2 353.3, 19.0 326.7, 20.0 300.0 C 21.0 273.3, 22.2 243.3, 24.0 220.0 C 25.8 196.7, 28.7 176.7, 31.0 160.0 C 33.3 143.3, 34.8 133.3, 38.0 120.0 C 41.2 106.7, 42.2 91.7, 50.0 80.0 C 57.8 68.3, 79.2 55.0, 85.0 50.0 C 90.8 45.0, 79.2 52.0, 85.0 50.0 Z"/></clipPath>
  </defs>

  <g id="grimoire_mascot" transform="translate(68 0) scale(0.39203675)">
    <g id="halo" opacity="0.14">
      <ellipse cx="480" cy="18" rx="360" ry="32" stroke="#ebe8de" stroke-width="16" fill="none"/>
      <ellipse cx="480" cy="18" rx="360" ry="32" stroke="#ffffff" stroke-width="32" stroke-opacity="0.18" fill="none" filter="url(#blur10)"/>
    </g>

    <g clip-path="url(#faceClip)">
      <path d="M 85.0 50.0 C 90.8 48.0, 107.5 41.5, 120.0 38.0 C 132.5 34.5, 143.3 31.8, 160.0 29.0 C 176.7 26.2, 196.7 23.0, 220.0 21.0 C 243.3 19.0, 273.3 17.7, 300.0 17.0 C 326.7 16.3, 350.0 17.7, 380.0 17.0 C 410.0 16.3, 446.7 13.0, 480.0 13.0 C 513.3 13.0, 550.0 16.3, 580.0 17.0 C 610.0 17.7, 633.3 16.3, 660.0 17.0 C 686.7 17.7, 716.7 19.0, 740.0 21.0 C 763.3 23.0, 783.3 26.0, 800.0 29.0 C 816.7 32.0, 827.5 35.3, 840.0 39.0 C 852.5 42.7, 863.5 44.2, 875.0 51.0 C 886.5 57.8, 901.3 68.5, 909.0 80.0 C 916.7 91.5, 917.8 106.7, 921.0 120.0 C 924.2 133.3, 925.8 143.3, 928.0 160.0 C 930.2 176.7, 932.2 196.7, 934.0 220.0 C 935.8 243.3, 937.8 273.3, 939.0 300.0 C 940.2 326.7, 940.8 353.3, 941.0 380.0 C 941.2 406.7, 940.7 433.3, 940.0 460.0 C 939.3 486.7, 938.2 513.3, 937.0 540.0 C 935.8 566.7, 935.2 593.3, 933.0 620.0 C 930.8 646.7, 927.5 673.3, 924.0 700.0 C 920.5 726.7, 917.7 753.3, 912.0 780.0 C 906.3 806.7, 899.5 833.3, 890.0 860.0 C 880.5 886.7, 871.2 913.3, 855.0 940.0 C 838.8 966.7, 814.8 993.3, 793.0 1020.0 C 771.2 1046.7, 748.7 1073.3, 724.0 1100.0 C 699.3 1126.7, 673.7 1156.7, 645.0 1180.0 C 616.3 1203.3, 572.8 1226.3, 552.0 1240.0 C 531.2 1253.7, 528.0 1255.7, 520.0 1262.0 C 512.0 1268.3, 508.7 1273.8, 504.0 1278.0 C 499.3 1282.2, 496.0 1284.7, 492.0 1287.0 C 488.0 1289.3, 484.0 1292.0, 480.0 1292.0 C 476.0 1292.0, 472.0 1289.3, 468.0 1287.0 C 464.0 1284.7, 460.7 1282.2, 456.0 1278.0 C 451.3 1273.8, 448.0 1268.3, 440.0 1262.0 C 432.0 1255.7, 429.0 1253.7, 408.0 1240.0 C 387.0 1226.3, 342.8 1203.3, 314.0 1180.0 C 285.2 1156.7, 259.7 1126.7, 235.0 1100.0 C 210.3 1073.3, 187.8 1046.7, 166.0 1020.0 C 144.2 993.3, 120.2 966.7, 104.0 940.0 C 87.8 913.3, 78.5 886.7, 69.0 860.0 C 59.5 833.3, 52.7 806.7, 47.0 780.0 C 41.3 753.3, 38.3 726.7, 35.0 700.0 C 31.7 673.3, 29.2 646.7, 27.0 620.0 C 24.8 593.3, 23.3 566.7, 22.0 540.0 C 20.7 513.3, 19.7 486.7, 19.0 460.0 C 18.3 433.3, 17.8 406.7, 18.0 380.0 C 18.2 353.3, 19.0 326.7, 20.0 300.0 C 21.0 273.3, 22.2 243.3, 24.0 220.0 C 25.8 196.7, 28.7 176.7, 31.0 160.0 C 33.3 143.3, 34.8 133.3, 38.0 120.0 C 41.2 106.7, 42.2 91.7, 50.0 80.0 C 57.8 68.3, 79.2 55.0, 85.0 50.0 C 90.8 45.0, 79.2 52.0, 85.0 50.0 Z" fill="url(#faceFill)"/>
      <path d="M 85.0 50.0 C 90.8 48.0, 107.5 41.5, 120.0 38.0 C 132.5 34.5, 143.3 31.8, 160.0 29.0 C 176.7 26.2, 196.7 23.0, 220.0 21.0 C 243.3 19.0, 273.3 17.7, 300.0 17.0 C 326.7 16.3, 350.0 17.7, 380.0 17.0 C 410.0 16.3, 446.7 13.0, 480.0 13.0 C 513.3 13.0, 550.0 16.3, 580.0 17.0 C 610.0 17.7, 633.3 16.3, 660.0 17.0 C 686.7 17.7, 716.7 19.0, 740.0 21.0 C 763.3 23.0, 783.3 26.0, 800.0 29.0 C 816.7 32.0, 827.5 35.3, 840.0 39.0 C 852.5 42.7, 863.5 44.2, 875.0 51.0 C 886.5 57.8, 901.3 68.5, 909.0 80.0 C 916.7 91.5, 917.8 106.7, 921.0 120.0 C 924.2 133.3, 925.8 143.3, 928.0 160.0 C 930.2 176.7, 932.2 196.7, 934.0 220.0 C 935.8 243.3, 937.8 273.3, 939.0 300.0 C 940.2 326.7, 940.8 353.3, 941.0 380.0 C 941.2 406.7, 940.7 433.3, 940.0 460.0 C 939.3 486.7, 938.2 513.3, 937.0 540.0 C 935.8 566.7, 935.2 593.3, 933.0 620.0 C 930.8 646.7, 927.5 673.3, 924.0 700.0 C 920.5 726.7, 917.7 753.3, 912.0 780.0 C 906.3 806.7, 899.5 833.3, 890.0 860.0 C 880.5 886.7, 871.2 913.3, 855.0 940.0 C 838.8 966.7, 814.8 993.3, 793.0 1020.0 C 771.2 1046.7, 748.7 1073.3, 724.0 1100.0 C 699.3 1126.7, 673.7 1156.7, 645.0 1180.0 C 616.3 1203.3, 572.8 1226.3, 552.0 1240.0 C 531.2 1253.7, 528.0 1255.7, 520.0 1262.0 C 512.0 1268.3, 508.7 1273.8, 504.0 1278.0 C 499.3 1282.2, 496.0 1284.7, 492.0 1287.0 C 488.0 1289.3, 484.0 1292.0, 480.0 1292.0 C 476.0 1292.0, 472.0 1289.3, 468.0 1287.0 C 464.0 1284.7, 460.7 1282.2, 456.0 1278.0 C 451.3 1273.8, 448.0 1268.3, 440.0 1262.0 C 432.0 1255.7, 429.0 1253.7, 408.0 1240.0 C 387.0 1226.3, 342.8 1203.3, 314.0 1180.0 C 285.2 1156.7, 259.7 1126.7, 235.0 1100.0 C 210.3 1073.3, 187.8 1046.7, 166.0 1020.0 C 144.2 993.3, 120.2 966.7, 104.0 940.0 C 87.8 913.3, 78.5 886.7, 69.0 860.0 C 59.5 833.3, 52.7 806.7, 47.0 780.0 C 41.3 753.3, 38.3 726.7, 35.0 700.0 C 31.7 673.3, 29.2 646.7, 27.0 620.0 C 24.8 593.3, 23.3 566.7, 22.0 540.0 C 20.7 513.3, 19.7 486.7, 19.0 460.0 C 18.3 433.3, 17.8 406.7, 18.0 380.0 C 18.2 353.3, 19.0 326.7, 20.0 300.0 C 21.0 273.3, 22.2 243.3, 24.0 220.0 C 25.8 196.7, 28.7 176.7, 31.0 160.0 C 33.3 143.3, 34.8 133.3, 38.0 120.0 C 41.2 106.7, 42.2 91.7, 50.0 80.0 C 57.8 68.3, 79.2 55.0, 85.0 50.0 C 90.8 45.0, 79.2 52.0, 85.0 50.0 Z" fill="url(#foreheadGlow)"/>

      <ellipse cx="480" cy="72" rx="68" ry="22" fill="#777a7d" opacity="0.10" filter="url(#blur14)"/>
      <ellipse cx="118" cy="650" rx="84" ry="538" fill="#5f6367" opacity="0.065" filter="url(#blur20)"/>
      <ellipse cx="842" cy="650" rx="84" ry="538" fill="#5f6367" opacity="0.065" filter="url(#blur20)"/>
      <ellipse cx="480" cy="1218" rx="72" ry="18" fill="#7a7d80" opacity="0.12" filter="url(#blur10)"/>

      <path d="M 480 370 C 451 468 447 583 480 700 C 488 727 508 735 526 731 C 554 724 562 694 561 662 C 556 551 553 480 539 378 C 533 331 492 320 480 370 Z" fill="#8c9094" opacity="0.16"/>
      <path d="M 480 372 C 463 484 464 590 484 684" stroke="#c8cbcd" stroke-width="7" stroke-linecap="round" opacity="0.22"/>

      <ellipse cx="391" cy="742" rx="25" ry="10" fill="#7f8388" opacity="0.4" filter="url(#blur6)"/>
      <ellipse cx="569" cy="742" rx="25" ry="10" fill="#7f8388" opacity="0.4" filter="url(#blur6)"/>
      <ellipse cx="391" cy="742" rx="13" ry="4.5" fill="#5a5f66" opacity="0.58"/>
      <ellipse cx="569" cy="742" rx="13" ry="4.5" fill="#5a5f66" opacity="0.58"/>

      <path d="M 103 710 C 152 712 205 702 287 695" stroke="#8e9194" stroke-width="13" stroke-linecap="round" opacity="0.22" filter="url(#blur6)"/>
      <path d="M 857 710 C 808 712 755 702 673 695" stroke="#8e9194" stroke-width="13" stroke-linecap="round" opacity="0.22" filter="url(#blur6)"/>

      <path d="M 102 714 C 103 799 128 889 178 995" stroke="#84888c" stroke-width="15" stroke-linecap="round" opacity="0.25" filter="url(#blur6)"/>
      <path d="M 858 714 C 857 799 832 889 782 995" stroke="#84888c" stroke-width="15" stroke-linecap="round" opacity="0.25" filter="url(#blur6)"/>

      <ellipse cx="168" cy="575" rx="82" ry="86" fill="url(#cheekBlush)" filter="url(#blur14)"/>
      <ellipse cx="792" cy="575" rx="82" ry="86" fill="url(#cheekBlush)" filter="url(#blur14)"/>
    </g>

    <g id="brows">
      <path d="M 82.0 331.0 C 84.7 330.2, 99.2 312.8, 106.0 307.0 C 112.8 301.2, 116.8 299.5, 123.0 296.0 C 129.2 292.5, 136.5 288.7, 143.0 286.0 C 149.5 283.3, 156.0 281.2, 162.0 280.0 C 168.0 278.8, 176.0 280.0, 179.0 279.0 C 182.0 278.0, 179.2 275.5, 180.0 274.0 C 180.8 272.5, 182.5 271.0, 184.0 270.0 C 185.5 269.0, 183.8 268.5, 189.0 268.0 C 194.2 267.5, 206.3 266.3, 215.0 267.0 C 223.7 267.7, 232.5 269.8, 241.0 272.0 C 249.5 274.2, 255.8 275.7, 266.0 280.0 C 276.2 284.3, 294.5 293.8, 302.0 298.0 C 309.5 302.2, 308.3 302.5, 311.0 305.0 C 313.7 307.5, 316.5 311.0, 318.0 313.0 C 319.5 315.0, 319.7 315.5, 320.0 317.0 C 320.3 318.5, 320.3 320.7, 320.0 322.0 C 319.7 323.3, 313.0 321.2, 318.0 325.0 C 323.0 328.8, 339.3 337.7, 350.0 345.0 C 360.7 352.3, 373.7 363.2, 382.0 369.0 C 390.3 374.8, 395.7 377.8, 400.0 380.0 C 404.3 382.2, 404.8 382.0, 408.0 382.0 C 411.2 382.0, 416.3 381.2, 419.0 380.0 C 421.7 378.8, 422.7 377.7, 424.0 375.0 C 425.3 372.3, 426.7 367.7, 427.0 364.0 C 427.3 360.3, 426.7 356.2, 426.0 353.0 C 425.3 349.8, 425.2 348.5, 423.0 345.0 C 420.8 341.5, 418.3 337.5, 413.0 332.0 C 407.7 326.5, 400.2 319.0, 391.0 312.0 C 381.8 305.0, 369.0 296.5, 358.0 290.0 C 347.0 283.5, 336.3 278.2, 325.0 273.0 C 313.7 267.8, 300.7 262.7, 290.0 259.0 C 279.3 255.3, 270.2 253.0, 261.0 251.0 C 251.8 249.0, 243.0 247.8, 235.0 247.0 C 227.0 246.2, 222.0 245.7, 213.0 246.0 C 204.0 246.3, 189.7 247.7, 181.0 249.0 C 172.3 250.3, 167.8 251.7, 161.0 254.0 C 154.2 256.3, 146.5 259.5, 140.0 263.0 C 133.5 266.5, 128.3 269.7, 122.0 275.0 C 115.7 280.3, 107.3 288.8, 102.0 295.0 C 96.7 301.2, 93.3 306.0, 90.0 312.0 C 86.7 318.0, 79.3 331.8, 82.0 331.0 Z" fill="#000000" opacity="0.10" transform="translate(0 -58)" filter="url(#blur14)"/>
      <path d="M 877.0 331.0 C 879.7 331.8, 872.3 318.0, 869.0 312.0 C 865.7 306.0, 862.3 301.2, 857.0 295.0 C 851.7 288.8, 843.3 280.3, 837.0 275.0 C 830.7 269.7, 825.0 266.3, 819.0 263.0 C 813.0 259.7, 807.8 257.3, 801.0 255.0 C 794.2 252.7, 787.2 250.5, 778.0 249.0 C 768.8 247.5, 755.0 246.3, 746.0 246.0 C 737.0 245.7, 732.7 246.0, 724.0 247.0 C 715.3 248.0, 704.5 249.5, 694.0 252.0 C 683.5 254.5, 671.3 258.3, 661.0 262.0 C 650.7 265.7, 642.0 269.3, 632.0 274.0 C 622.0 278.7, 611.7 283.7, 601.0 290.0 C 590.3 296.3, 577.0 305.2, 568.0 312.0 C 559.0 318.8, 552.3 325.5, 547.0 331.0 C 541.7 336.5, 538.3 341.3, 536.0 345.0 C 533.7 348.7, 533.7 349.8, 533.0 353.0 C 532.3 356.2, 531.8 360.7, 532.0 364.0 C 532.2 367.3, 532.7 370.3, 534.0 373.0 C 535.3 375.7, 537.8 378.5, 540.0 380.0 C 542.2 381.5, 543.8 382.0, 547.0 382.0 C 550.2 382.0, 554.0 382.2, 559.0 380.0 C 564.0 377.8, 570.2 373.8, 577.0 369.0 C 583.8 364.2, 589.3 358.3, 600.0 351.0 C 610.7 343.7, 634.5 329.8, 641.0 325.0 C 647.5 320.2, 639.3 323.3, 639.0 322.0 C 638.7 320.7, 638.7 318.5, 639.0 317.0 C 639.3 315.5, 639.5 315.0, 641.0 313.0 C 642.5 311.0, 645.3 307.5, 648.0 305.0 C 650.7 302.5, 649.5 302.2, 657.0 298.0 C 664.5 293.8, 682.8 284.3, 693.0 280.0 C 703.2 275.7, 709.5 274.2, 718.0 272.0 C 726.5 269.8, 735.3 267.7, 744.0 267.0 C 752.7 266.3, 764.8 267.5, 770.0 268.0 C 775.2 268.5, 773.5 269.0, 775.0 270.0 C 776.5 271.0, 778.2 272.5, 779.0 274.0 C 779.8 275.5, 777.0 278.0, 780.0 279.0 C 783.0 280.0, 791.0 278.8, 797.0 280.0 C 803.0 281.2, 809.5 283.3, 816.0 286.0 C 822.5 288.7, 829.8 292.5, 836.0 296.0 C 842.2 299.5, 846.2 301.2, 853.0 307.0 C 859.8 312.8, 874.3 330.2, 877.0 331.0 Z" fill="#000000" opacity="0.10" transform="translate(0 -58)" filter="url(#blur14)"/>
      <path d="M 82.0 331.0 C 84.7 330.2, 99.2 312.8, 106.0 307.0 C 112.8 301.2, 116.8 299.5, 123.0 296.0 C 129.2 292.5, 136.5 288.7, 143.0 286.0 C 149.5 283.3, 156.0 281.2, 162.0 280.0 C 168.0 278.8, 176.0 280.0, 179.0 279.0 C 182.0 278.0, 179.2 275.5, 180.0 274.0 C 180.8 272.5, 182.5 271.0, 184.0 270.0 C 185.5 269.0, 183.8 268.5, 189.0 268.0 C 194.2 267.5, 206.3 266.3, 215.0 267.0 C 223.7 267.7, 232.5 269.8, 241.0 272.0 C 249.5 274.2, 255.8 275.7, 266.0 280.0 C 276.2 284.3, 294.5 293.8, 302.0 298.0 C 309.5 302.2, 308.3 302.5, 311.0 305.0 C 313.7 307.5, 316.5 311.0, 318.0 313.0 C 319.5 315.0, 319.7 315.5, 320.0 317.0 C 320.3 318.5, 320.3 320.7, 320.0 322.0 C 319.7 323.3, 313.0 321.2, 318.0 325.0 C 323.0 328.8, 339.3 337.7, 350.0 345.0 C 360.7 352.3, 373.7 363.2, 382.0 369.0 C 390.3 374.8, 395.7 377.8, 400.0 380.0 C 404.3 382.2, 404.8 382.0, 408.0 382.0 C 411.2 382.0, 416.3 381.2, 419.0 380.0 C 421.7 378.8, 422.7 377.7, 424.0 375.0 C 425.3 372.3, 426.7 367.7, 427.0 364.0 C 427.3 360.3, 426.7 356.2, 426.0 353.0 C 425.3 349.8, 425.2 348.5, 423.0 345.0 C 420.8 341.5, 418.3 337.5, 413.0 332.0 C 407.7 326.5, 400.2 319.0, 391.0 312.0 C 381.8 305.0, 369.0 296.5, 358.0 290.0 C 347.0 283.5, 336.3 278.2, 325.0 273.0 C 313.7 267.8, 300.7 262.7, 290.0 259.0 C 279.3 255.3, 270.2 253.0, 261.0 251.0 C 251.8 249.0, 243.0 247.8, 235.0 247.0 C 227.0 246.2, 222.0 245.7, 213.0 246.0 C 204.0 246.3, 189.7 247.7, 181.0 249.0 C 172.3 250.3, 167.8 251.7, 161.0 254.0 C 154.2 256.3, 146.5 259.5, 140.0 263.0 C 133.5 266.5, 128.3 269.7, 122.0 275.0 C 115.7 280.3, 107.3 288.8, 102.0 295.0 C 96.7 301.2, 93.3 306.0, 90.0 312.0 C 86.7 318.0, 79.3 331.8, 82.0 331.0 Z" fill="url(#hairBlack)"/>
      <path d="M 877.0 331.0 C 879.7 331.8, 872.3 318.0, 869.0 312.0 C 865.7 306.0, 862.3 301.2, 857.0 295.0 C 851.7 288.8, 843.3 280.3, 837.0 275.0 C 830.7 269.7, 825.0 266.3, 819.0 263.0 C 813.0 259.7, 807.8 257.3, 801.0 255.0 C 794.2 252.7, 787.2 250.5, 778.0 249.0 C 768.8 247.5, 755.0 246.3, 746.0 246.0 C 737.0 245.7, 732.7 246.0, 724.0 247.0 C 715.3 248.0, 704.5 249.5, 694.0 252.0 C 683.5 254.5, 671.3 258.3, 661.0 262.0 C 650.7 265.7, 642.0 269.3, 632.0 274.0 C 622.0 278.7, 611.7 283.7, 601.0 290.0 C 590.3 296.3, 577.0 305.2, 568.0 312.0 C 559.0 318.8, 552.3 325.5, 547.0 331.0 C 541.7 336.5, 538.3 341.3, 536.0 345.0 C 533.7 348.7, 533.7 349.8, 533.0 353.0 C 532.3 356.2, 531.8 360.7, 532.0 364.0 C 532.2 367.3, 532.7 370.3, 534.0 373.0 C 535.3 375.7, 537.8 378.5, 540.0 380.0 C 542.2 381.5, 543.8 382.0, 547.0 382.0 C 550.2 382.0, 554.0 382.2, 559.0 380.0 C 564.0 377.8, 570.2 373.8, 577.0 369.0 C 583.8 364.2, 589.3 358.3, 600.0 351.0 C 610.7 343.7, 634.5 329.8, 641.0 325.0 C 647.5 320.2, 639.3 323.3, 639.0 322.0 C 638.7 320.7, 638.7 318.5, 639.0 317.0 C 639.3 315.5, 639.5 315.0, 641.0 313.0 C 642.5 311.0, 645.3 307.5, 648.0 305.0 C 650.7 302.5, 649.5 302.2, 657.0 298.0 C 664.5 293.8, 682.8 284.3, 693.0 280.0 C 703.2 275.7, 709.5 274.2, 718.0 272.0 C 726.5 269.8, 735.3 267.7, 744.0 267.0 C 752.7 266.3, 764.8 267.5, 770.0 268.0 C 775.2 268.5, 773.5 269.0, 775.0 270.0 C 776.5 271.0, 778.2 272.5, 779.0 274.0 C 779.8 275.5, 777.0 278.0, 780.0 279.0 C 783.0 280.0, 791.0 278.8, 797.0 280.0 C 803.0 281.2, 809.5 283.3, 816.0 286.0 C 822.5 288.7, 829.8 292.5, 836.0 296.0 C 842.2 299.5, 846.2 301.2, 853.0 307.0 C 859.8 312.8, 874.3 330.2, 877.0 331.0 Z" fill="url(#hairBlack)"/>
    </g>

    <g id="left_eye">
      <ellipse cx="248" cy="473" rx="120" ry="26" fill="#000000" opacity="0.34" filter="url(#blur10)"/>
      <path d="M 148.0 450.0 C 146.8 452.0, 147.3 453.3, 149.0 455.0 C 150.7 456.7, 154.3 458.5, 158.0 460.0 C 161.7 461.5, 165.0 462.7, 171.0 464.0 C 177.0 465.3, 181.2 466.7, 194.0 468.0 C 206.8 469.3, 225.0 471.5, 248.0 472.0 C 271.0 472.5, 317.8 471.0, 332.0 471.0 C 346.2 471.0, 333.2 471.2, 333.0 472.0 C 332.8 472.8, 331.0 475.0, 331.0 476.0 C 331.0 477.0, 328.8 476.3, 333.0 478.0 C 337.2 479.7, 350.3 484.7, 356.0 486.0 C 361.7 487.3, 364.5 486.3, 367.0 486.0 C 369.5 485.7, 370.0 484.8, 371.0 484.0 C 372.0 483.2, 372.8 482.2, 373.0 481.0 C 373.2 479.8, 372.8 478.2, 372.0 477.0 C 371.2 475.8, 370.3 474.8, 368.0 474.0 C 365.7 473.2, 361.7 472.3, 358.0 472.0 C 354.3 471.7, 348.0 472.3, 346.0 472.0 C 344.0 471.7, 345.2 470.5, 346.0 470.0 C 346.8 469.5, 350.3 469.7, 351.0 469.0 C 351.7 468.3, 352.3 468.3, 350.0 466.0 C 347.7 463.7, 341.2 458.0, 337.0 455.0 C 332.8 452.0, 332.3 451.2, 325.0 448.0 C 317.7 444.8, 302.5 438.8, 293.0 436.0 C 283.5 433.2, 274.7 432.0, 268.0 431.0 C 261.3 430.0, 256.3 429.2, 253.0 430.0 C 249.7 430.8, 251.2 434.3, 248.0 436.0 C 244.8 437.7, 238.0 439.3, 234.0 440.0 C 230.0 440.7, 227.7 440.5, 224.0 440.0 C 220.3 439.5, 214.8 438.2, 212.0 437.0 C 209.2 435.8, 208.0 434.2, 207.0 433.0 C 206.0 431.8, 208.7 430.3, 206.0 430.0 C 203.3 429.7, 197.3 429.8, 191.0 431.0 C 184.7 432.2, 173.8 435.0, 168.0 437.0 C 162.2 439.0, 159.3 440.8, 156.0 443.0 C 152.7 445.2, 149.2 448.0, 148.0 450.0 Z" fill="#000000"/>
      <ellipse cx="231" cy="438" rx="28" ry="9" fill="#ffffff" opacity="0.92" filter="url(#blur6)"/>
      <path d="M 110 438 C 162 402 278 400 348 432" stroke="#ffffff" stroke-opacity="0.18" stroke-width="7" stroke-linecap="round" filter="url(#blur6)"/>
    </g>

    <g id="right_eye">
      <ellipse cx="712" cy="473" rx="120" ry="26" fill="#000000" opacity="0.34" filter="url(#blur10)"/>
      <path d="M 811.0 450.0 C 809.8 448.0, 806.3 445.2, 803.0 443.0 C 799.7 440.8, 796.8 439.0, 791.0 437.0 C 785.2 435.0, 774.3 432.2, 768.0 431.0 C 761.7 429.8, 755.7 429.7, 753.0 430.0 C 750.3 430.3, 753.0 431.8, 752.0 433.0 C 751.0 434.2, 749.8 435.8, 747.0 437.0 C 744.2 438.2, 738.7 439.5, 735.0 440.0 C 731.3 440.5, 728.7 440.5, 725.0 440.0 C 721.3 439.5, 716.2 438.7, 713.0 437.0 C 709.8 435.3, 709.7 431.0, 706.0 430.0 C 702.3 429.0, 697.7 430.0, 691.0 431.0 C 684.3 432.0, 675.5 433.2, 666.0 436.0 C 656.5 438.8, 641.3 444.8, 634.0 448.0 C 626.7 451.2, 626.2 452.0, 622.0 455.0 C 617.8 458.0, 611.3 463.7, 609.0 466.0 C 606.7 468.3, 607.3 468.3, 608.0 469.0 C 608.7 469.7, 612.2 469.5, 613.0 470.0 C 613.8 470.5, 616.8 471.3, 613.0 472.0 C 609.2 472.7, 594.3 473.2, 590.0 474.0 C 585.7 474.8, 587.7 475.8, 587.0 477.0 C 586.3 478.2, 585.8 479.8, 586.0 481.0 C 586.2 482.2, 587.0 483.2, 588.0 484.0 C 589.0 484.8, 589.5 485.7, 592.0 486.0 C 594.5 486.3, 597.3 487.3, 603.0 486.0 C 608.7 484.7, 621.8 479.7, 626.0 478.0 C 630.2 476.3, 628.0 477.0, 628.0 476.0 C 628.0 475.0, 626.2 472.8, 626.0 472.0 C 625.8 471.2, 612.8 471.0, 627.0 471.0 C 641.2 471.0, 688.0 472.5, 711.0 472.0 C 734.0 471.5, 752.2 469.3, 765.0 468.0 C 777.8 466.7, 782.0 465.3, 788.0 464.0 C 794.0 462.7, 797.3 461.5, 801.0 460.0 C 804.7 458.5, 808.3 456.7, 810.0 455.0 C 811.7 453.3, 812.2 452.0, 811.0 450.0 Z" fill="#000000"/>
      <ellipse cx="729" cy="438" rx="28" ry="9" fill="#ffffff" opacity="0.92" filter="url(#blur6)"/>
      <path d="M 612 438 C 664 402 780 400 850 432" stroke="#ffffff" stroke-opacity="0.18" stroke-width="7" stroke-linecap="round" filter="url(#blur6)"/>
    </g>

    <path d="M 154.0 739.0 C 155.2 741.8, 156.2 739.3, 166.0 754.0 C 175.8 768.7, 203.0 812.2, 213.0 827.0 C 223.0 841.8, 221.3 838.3, 226.0 843.0 C 230.7 847.7, 234.0 851.3, 241.0 855.0 C 248.0 858.7, 254.2 861.5, 268.0 865.0 C 281.8 868.5, 307.0 873.7, 324.0 876.0 C 341.0 878.3, 353.3 878.3, 370.0 879.0 C 386.7 879.7, 413.8 880.2, 424.0 880.0 C 434.2 879.8, 427.5 880.7, 431.0 878.0 C 434.5 875.3, 438.0 871.7, 445.0 864.0 C 452.0 856.3, 467.3 838.8, 473.0 832.0 C 478.7 825.2, 472.0 817.5, 479.0 823.0 C 486.0 828.5, 506.8 855.8, 515.0 865.0 C 523.2 874.2, 525.2 875.5, 528.0 878.0 C 530.8 880.5, 521.8 879.8, 532.0 880.0 C 542.2 880.2, 571.8 879.7, 589.0 879.0 C 606.2 878.3, 620.7 877.7, 635.0 876.0 C 649.3 874.3, 663.0 871.7, 675.0 869.0 C 687.0 866.3, 698.8 863.0, 707.0 860.0 C 715.2 857.0, 718.5 855.2, 724.0 851.0 C 729.5 846.8, 733.8 842.7, 740.0 835.0 C 746.2 827.3, 752.2 818.5, 761.0 805.0 C 769.8 791.5, 785.7 764.8, 793.0 754.0 C 800.3 743.2, 803.8 742.8, 805.0 740.0 C 806.2 737.2, 805.5 737.5, 800.0 737.0 C 794.5 736.5, 778.2 736.3, 772.0 737.0 C 765.8 737.7, 769.0 734.8, 763.0 741.0 C 757.0 747.2, 744.0 764.8, 736.0 774.0 C 728.0 783.2, 722.0 789.8, 715.0 796.0 C 708.0 802.2, 698.8 807.8, 694.0 811.0 C 689.2 814.2, 691.0 813.3, 686.0 815.0 C 681.0 816.7, 670.5 819.7, 664.0 821.0 C 657.5 822.3, 653.8 822.7, 647.0 823.0 C 640.2 823.3, 631.2 823.3, 623.0 823.0 C 614.8 822.7, 605.0 822.2, 598.0 821.0 C 591.0 819.8, 586.5 819.3, 581.0 816.0 C 575.5 812.7, 573.2 810.7, 565.0 801.0 C 556.8 791.3, 538.8 766.5, 532.0 758.0 C 525.2 749.5, 526.3 751.7, 524.0 750.0 C 521.7 748.3, 519.3 747.7, 518.0 748.0 C 516.7 748.3, 517.5 750.7, 516.0 752.0 C 514.5 753.3, 512.7 754.7, 509.0 756.0 C 505.3 757.3, 497.3 759.5, 494.0 760.0 C 490.7 760.5, 491.2 758.8, 489.0 759.0 C 486.8 759.2, 486.5 761.2, 481.0 761.0 C 475.5 760.8, 461.8 759.2, 456.0 758.0 C 450.2 756.8, 448.3 755.2, 446.0 754.0 C 443.7 752.8, 442.8 752.0, 442.0 751.0 C 441.2 750.0, 442.2 748.2, 441.0 748.0 C 439.8 747.8, 437.5 748.2, 435.0 750.0 C 432.5 751.8, 432.8 750.5, 426.0 759.0 C 419.2 767.5, 402.0 791.5, 394.0 801.0 C 386.0 810.5, 383.5 812.7, 378.0 816.0 C 372.5 819.3, 372.0 819.8, 361.0 821.0 C 350.0 822.2, 325.8 823.7, 312.0 823.0 C 298.2 822.3, 285.8 819.0, 278.0 817.0 C 270.2 815.0, 269.8 813.8, 265.0 811.0 C 260.2 808.2, 254.8 804.8, 249.0 800.0 C 243.2 795.2, 238.8 791.8, 230.0 782.0 C 221.2 772.2, 203.2 748.5, 196.0 741.0 C 188.8 733.5, 193.2 737.7, 187.0 737.0 C 180.8 736.3, 164.5 736.7, 159.0 737.0 C 153.5 737.3, 152.8 736.2, 154.0 739.0 Z" fill="#000000" opacity="0.22" transform="translate(0 8)" filter="url(#blur10)"/>
    <path d="M 154.0 739.0 C 155.2 741.8, 156.2 739.3, 166.0 754.0 C 175.8 768.7, 203.0 812.2, 213.0 827.0 C 223.0 841.8, 221.3 838.3, 226.0 843.0 C 230.7 847.7, 234.0 851.3, 241.0 855.0 C 248.0 858.7, 254.2 861.5, 268.0 865.0 C 281.8 868.5, 307.0 873.7, 324.0 876.0 C 341.0 878.3, 353.3 878.3, 370.0 879.0 C 386.7 879.7, 413.8 880.2, 424.0 880.0 C 434.2 879.8, 427.5 880.7, 431.0 878.0 C 434.5 875.3, 438.0 871.7, 445.0 864.0 C 452.0 856.3, 467.3 838.8, 473.0 832.0 C 478.7 825.2, 472.0 817.5, 479.0 823.0 C 486.0 828.5, 506.8 855.8, 515.0 865.0 C 523.2 874.2, 525.2 875.5, 528.0 878.0 C 530.8 880.5, 521.8 879.8, 532.0 880.0 C 542.2 880.2, 571.8 879.7, 589.0 879.0 C 606.2 878.3, 620.7 877.7, 635.0 876.0 C 649.3 874.3, 663.0 871.7, 675.0 869.0 C 687.0 866.3, 698.8 863.0, 707.0 860.0 C 715.2 857.0, 718.5 855.2, 724.0 851.0 C 729.5 846.8, 733.8 842.7, 740.0 835.0 C 746.2 827.3, 752.2 818.5, 761.0 805.0 C 769.8 791.5, 785.7 764.8, 793.0 754.0 C 800.3 743.2, 803.8 742.8, 805.0 740.0 C 806.2 737.2, 805.5 737.5, 800.0 737.0 C 794.5 736.5, 778.2 736.3, 772.0 737.0 C 765.8 737.7, 769.0 734.8, 763.0 741.0 C 757.0 747.2, 744.0 764.8, 736.0 774.0 C 728.0 783.2, 722.0 789.8, 715.0 796.0 C 708.0 802.2, 698.8 807.8, 694.0 811.0 C 689.2 814.2, 691.0 813.3, 686.0 815.0 C 681.0 816.7, 670.5 819.7, 664.0 821.0 C 657.5 822.3, 653.8 822.7, 647.0 823.0 C 640.2 823.3, 631.2 823.3, 623.0 823.0 C 614.8 822.7, 605.0 822.2, 598.0 821.0 C 591.0 819.8, 586.5 819.3, 581.0 816.0 C 575.5 812.7, 573.2 810.7, 565.0 801.0 C 556.8 791.3, 538.8 766.5, 532.0 758.0 C 525.2 749.5, 526.3 751.7, 524.0 750.0 C 521.7 748.3, 519.3 747.7, 518.0 748.0 C 516.7 748.3, 517.5 750.7, 516.0 752.0 C 514.5 753.3, 512.7 754.7, 509.0 756.0 C 505.3 757.3, 497.3 759.5, 494.0 760.0 C 490.7 760.5, 491.2 758.8, 489.0 759.0 C 486.8 759.2, 486.5 761.2, 481.0 761.0 C 475.5 760.8, 461.8 759.2, 456.0 758.0 C 450.2 756.8, 448.3 755.2, 446.0 754.0 C 443.7 752.8, 442.8 752.0, 442.0 751.0 C 441.2 750.0, 442.2 748.2, 441.0 748.0 C 439.8 747.8, 437.5 748.2, 435.0 750.0 C 432.5 751.8, 432.8 750.5, 426.0 759.0 C 419.2 767.5, 402.0 791.5, 394.0 801.0 C 386.0 810.5, 383.5 812.7, 378.0 816.0 C 372.5 819.3, 372.0 819.8, 361.0 821.0 C 350.0 822.2, 325.8 823.7, 312.0 823.0 C 298.2 822.3, 285.8 819.0, 278.0 817.0 C 270.2 815.0, 269.8 813.8, 265.0 811.0 C 260.2 808.2, 254.8 804.8, 249.0 800.0 C 243.2 795.2, 238.8 791.8, 230.0 782.0 C 221.2 772.2, 203.2 748.5, 196.0 741.0 C 188.8 733.5, 193.2 737.7, 187.0 737.0 C 180.8 736.3, 164.5 736.7, 159.0 737.0 C 153.5 737.3, 152.8 736.2, 154.0 739.0 Z" fill="url(#hairBlack)"/>

    <g id="mouth">
      <path d="M 364.0 888.0 C 363.7 884.8, 390.7 882.0, 410.0 880.0 C 429.3 878.0, 456.7 876.0, 480.0 876.0 C 503.3 876.0, 530.7 878.0, 550.0 880.0 C 569.3 882.0, 596.3 884.8, 596.0 888.0 C 595.7 891.2, 567.3 896.2, 548.0 899.0 C 528.7 901.8, 502.7 905.0, 480.0 905.0 C 457.3 905.0, 431.3 901.8, 412.0 899.0 C 392.7 896.2, 364.3 891.2, 364.0 888.0 Z" fill="#000000" opacity="0.48" filter="url(#blur6)"/>
      <path d="M 392.0 869.0 C 399.7 870.3, 423.3 875.2, 438.0 877.0 C 452.7 878.8, 466.0 880.0, 480.0 880.0 C 494.0 880.0, 507.3 878.8, 522.0 877.0 C 536.7 875.2, 560.3 870.3, 568.0 869.0" stroke="#ffffff" stroke-opacity="0.10" stroke-width="6" stroke-linecap="round" filter="url(#blur6)"/>
    </g>

    <path d="M 422.0 996.0 C 420.7 997.7, 424.7 1001.8, 428.0 1006.0 C 431.3 1010.2, 438.3 1015.3, 442.0 1021.0 C 445.7 1026.7, 448.7 1034.3, 450.0 1040.0 C 451.3 1045.7, 450.3 1051.2, 450.0 1055.0 C 449.7 1058.8, 450.5 1058.7, 448.0 1063.0 C 445.5 1067.3, 437.8 1076.5, 435.0 1081.0 C 432.2 1085.5, 432.3 1084.2, 431.0 1090.0 C 429.7 1095.8, 427.2 1104.3, 427.0 1116.0 C 426.8 1127.7, 427.3 1145.8, 430.0 1160.0 C 432.7 1174.2, 439.8 1186.7, 443.0 1201.0 C 446.2 1215.3, 448.7 1238.3, 449.0 1246.0 C 449.3 1253.7, 449.3 1247.5, 445.0 1247.0 C 440.7 1246.5, 431.0 1245.3, 423.0 1243.0 C 415.0 1240.7, 401.5 1234.5, 397.0 1233.0 C 392.5 1231.5, 392.3 1232.2, 396.0 1234.0 C 399.7 1235.8, 410.3 1241.5, 419.0 1244.0 C 427.7 1246.5, 442.8 1247.2, 448.0 1249.0 C 453.2 1250.8, 449.3 1249.8, 450.0 1255.0 C 450.7 1260.2, 451.0 1273.3, 452.0 1280.0 C 453.0 1286.7, 454.2 1291.5, 456.0 1295.0 C 457.8 1298.5, 460.5 1299.5, 463.0 1301.0 C 465.5 1302.5, 466.8 1303.5, 471.0 1304.0 C 475.2 1304.5, 483.3 1304.8, 488.0 1304.0 C 492.7 1303.2, 496.3 1300.8, 499.0 1299.0 C 501.7 1297.2, 502.7 1296.2, 504.0 1293.0 C 505.3 1289.8, 506.2 1286.3, 507.0 1280.0 C 507.8 1273.7, 508.3 1260.2, 509.0 1255.0 C 509.7 1249.8, 505.8 1250.8, 511.0 1249.0 C 516.2 1247.2, 531.3 1246.5, 540.0 1244.0 C 548.7 1241.5, 559.3 1235.8, 563.0 1234.0 C 566.7 1232.2, 565.2 1231.8, 562.0 1233.0 C 558.8 1234.2, 552.0 1238.7, 544.0 1241.0 C 536.0 1243.3, 519.7 1246.2, 514.0 1247.0 C 508.3 1247.8, 509.7 1253.8, 510.0 1246.0 C 510.3 1238.2, 513.0 1213.5, 516.0 1200.0 C 519.0 1186.5, 525.5 1174.5, 528.0 1165.0 C 530.5 1155.5, 530.7 1154.2, 531.0 1143.0 C 531.3 1131.8, 531.5 1108.8, 530.0 1098.0 C 528.5 1087.2, 524.7 1082.8, 522.0 1078.0 C 519.3 1073.2, 515.8 1071.5, 514.0 1069.0 C 512.2 1066.5, 511.8 1065.3, 511.0 1063.0 C 510.2 1060.7, 509.3 1058.8, 509.0 1055.0 C 508.7 1051.2, 507.7 1045.7, 509.0 1040.0 C 510.3 1034.3, 518.7 1025.8, 517.0 1021.0 C 515.3 1016.2, 505.5 1014.0, 499.0 1011.0 C 492.5 1008.0, 484.2 1005.0, 478.0 1003.0 C 471.8 1001.0, 467.7 999.7, 462.0 999.0 C 456.3 998.3, 448.3 999.5, 444.0 999.0 C 439.7 998.5, 439.7 996.5, 436.0 996.0 C 432.3 995.5, 423.3 994.3, 422.0 996.0 Z" fill="#000000" opacity="0.20" transform="translate(0 8)" filter="url(#blur10)"/>
    <path d="M 422.0 996.0 C 420.7 997.7, 424.7 1001.8, 428.0 1006.0 C 431.3 1010.2, 438.3 1015.3, 442.0 1021.0 C 445.7 1026.7, 448.7 1034.3, 450.0 1040.0 C 451.3 1045.7, 450.3 1051.2, 450.0 1055.0 C 449.7 1058.8, 450.5 1058.7, 448.0 1063.0 C 445.5 1067.3, 437.8 1076.5, 435.0 1081.0 C 432.2 1085.5, 432.3 1084.2, 431.0 1090.0 C 429.7 1095.8, 427.2 1104.3, 427.0 1116.0 C 426.8 1127.7, 427.3 1145.8, 430.0 1160.0 C 432.7 1174.2, 439.8 1186.7, 443.0 1201.0 C 446.2 1215.3, 448.7 1238.3, 449.0 1246.0 C 449.3 1253.7, 449.3 1247.5, 445.0 1247.0 C 440.7 1246.5, 431.0 1245.3, 423.0 1243.0 C 415.0 1240.7, 401.5 1234.5, 397.0 1233.0 C 392.5 1231.5, 392.3 1232.2, 396.0 1234.0 C 399.7 1235.8, 410.3 1241.5, 419.0 1244.0 C 427.7 1246.5, 442.8 1247.2, 448.0 1249.0 C 453.2 1250.8, 449.3 1249.8, 450.0 1255.0 C 450.7 1260.2, 451.0 1273.3, 452.0 1280.0 C 453.0 1286.7, 454.2 1291.5, 456.0 1295.0 C 457.8 1298.5, 460.5 1299.5, 463.0 1301.0 C 465.5 1302.5, 466.8 1303.5, 471.0 1304.0 C 475.2 1304.5, 483.3 1304.8, 488.0 1304.0 C 492.7 1303.2, 496.3 1300.8, 499.0 1299.0 C 501.7 1297.2, 502.7 1296.2, 504.0 1293.0 C 505.3 1289.8, 506.2 1286.3, 507.0 1280.0 C 507.8 1273.7, 508.3 1260.2, 509.0 1255.0 C 509.7 1249.8, 505.8 1250.8, 511.0 1249.0 C 516.2 1247.2, 531.3 1246.5, 540.0 1244.0 C 548.7 1241.5, 559.3 1235.8, 563.0 1234.0 C 566.7 1232.2, 565.2 1231.8, 562.0 1233.0 C 558.8 1234.2, 552.0 1238.7, 544.0 1241.0 C 536.0 1243.3, 519.7 1246.2, 514.0 1247.0 C 508.3 1247.8, 509.7 1253.8, 510.0 1246.0 C 510.3 1238.2, 513.0 1213.5, 516.0 1200.0 C 519.0 1186.5, 525.5 1174.5, 528.0 1165.0 C 530.5 1155.5, 530.7 1154.2, 531.0 1143.0 C 531.3 1131.8, 531.5 1108.8, 530.0 1098.0 C 528.5 1087.2, 524.7 1082.8, 522.0 1078.0 C 519.3 1073.2, 515.8 1071.5, 514.0 1069.0 C 512.2 1066.5, 511.8 1065.3, 511.0 1063.0 C 510.2 1060.7, 509.3 1058.8, 509.0 1055.0 C 508.7 1051.2, 507.7 1045.7, 509.0 1040.0 C 510.3 1034.3, 518.7 1025.8, 517.0 1021.0 C 515.3 1016.2, 505.5 1014.0, 499.0 1011.0 C 492.5 1008.0, 484.2 1005.0, 478.0 1003.0 C 471.8 1001.0, 467.7 999.7, 462.0 999.0 C 456.3 998.3, 448.3 999.5, 444.0 999.0 C 439.7 998.5, 439.7 996.5, 436.0 996.0 C 432.3 995.5, 423.3 994.3, 422.0 996.0 Z" fill="url(#hairBlack)"/>

    <path d="M 85.0 50.0 C 90.8 48.0, 107.5 41.5, 120.0 38.0 C 132.5 34.5, 143.3 31.8, 160.0 29.0 C 176.7 26.2, 196.7 23.0, 220.0 21.0 C 243.3 19.0, 273.3 17.7, 300.0 17.0 C 326.7 16.3, 350.0 17.7, 380.0 17.0 C 410.0 16.3, 446.7 13.0, 480.0 13.0 C 513.3 13.0, 550.0 16.3, 580.0 17.0 C 610.0 17.7, 633.3 16.3, 660.0 17.0 C 686.7 17.7, 716.7 19.0, 740.0 21.0 C 763.3 23.0, 783.3 26.0, 800.0 29.0 C 816.7 32.0, 827.5 35.3, 840.0 39.0 C 852.5 42.7, 863.5 44.2, 875.0 51.0 C 886.5 57.8, 901.3 68.5, 909.0 80.0 C 916.7 91.5, 917.8 106.7, 921.0 120.0 C 924.2 133.3, 925.8 143.3, 928.0 160.0 C 930.2 176.7, 932.2 196.7, 934.0 220.0 C 935.8 243.3, 937.8 273.3, 939.0 300.0 C 940.2 326.7, 940.8 353.3, 941.0 380.0 C 941.2 406.7, 940.7 433.3, 940.0 460.0 C 939.3 486.7, 938.2 513.3, 937.0 540.0 C 935.8 566.7, 935.2 593.3, 933.0 620.0 C 930.8 646.7, 927.5 673.3, 924.0 700.0 C 920.5 726.7, 917.7 753.3, 912.0 780.0 C 906.3 806.7, 899.5 833.3, 890.0 860.0 C 880.5 886.7, 871.2 913.3, 855.0 940.0 C 838.8 966.7, 814.8 993.3, 793.0 1020.0 C 771.2 1046.7, 748.7 1073.3, 724.0 1100.0 C 699.3 1126.7, 673.7 1156.7, 645.0 1180.0 C 616.3 1203.3, 572.8 1226.3, 552.0 1240.0 C 531.2 1253.7, 528.0 1255.7, 520.0 1262.0 C 512.0 1268.3, 508.7 1273.8, 504.0 1278.0 C 499.3 1282.2, 496.0 1284.7, 492.0 1287.0 C 488.0 1289.3, 484.0 1292.0, 480.0 1292.0 C 476.0 1292.0, 472.0 1289.3, 468.0 1287.0 C 464.0 1284.7, 460.7 1282.2, 456.0 1278.0 C 451.3 1273.8, 448.0 1268.3, 440.0 1262.0 C 432.0 1255.7, 429.0 1253.7, 408.0 1240.0 C 387.0 1226.3, 342.8 1203.3, 314.0 1180.0 C 285.2 1156.7, 259.7 1126.7, 235.0 1100.0 C 210.3 1073.3, 187.8 1046.7, 166.0 1020.0 C 144.2 993.3, 120.2 966.7, 104.0 940.0 C 87.8 913.3, 78.5 886.7, 69.0 860.0 C 59.5 833.3, 52.7 806.7, 47.0 780.0 C 41.3 753.3, 38.3 726.7, 35.0 700.0 C 31.7 673.3, 29.2 646.7, 27.0 620.0 C 24.8 593.3, 23.3 566.7, 22.0 540.0 C 20.7 513.3, 19.7 486.7, 19.0 460.0 C 18.3 433.3, 17.8 406.7, 18.0 380.0 C 18.2 353.3, 19.0 326.7, 20.0 300.0 C 21.0 273.3, 22.2 243.3, 24.0 220.0 C 25.8 196.7, 28.7 176.7, 31.0 160.0 C 33.3 143.3, 34.8 133.3, 38.0 120.0 C 41.2 106.7, 42.2 91.7, 50.0 80.0 C 57.8 68.3, 79.2 55.0, 85.0 50.0 C 90.8 45.0, 79.2 52.0, 85.0 50.0 Z" fill="none" stroke="#b7bbbe" stroke-width="5.5"/>
    <path d="M 85.0 50.0 C 90.8 48.0, 107.5 41.5, 120.0 38.0 C 132.5 34.5, 143.3 31.8, 160.0 29.0 C 176.7 26.2, 196.7 23.0, 220.0 21.0 C 243.3 19.0, 273.3 17.7, 300.0 17.0 C 326.7 16.3, 350.0 17.7, 380.0 17.0 C 410.0 16.3, 446.7 13.0, 480.0 13.0 C 513.3 13.0, 550.0 16.3, 580.0 17.0 C 610.0 17.7, 633.3 16.3, 660.0 17.0 C 686.7 17.7, 716.7 19.0, 740.0 21.0 C 763.3 23.0, 783.3 26.0, 800.0 29.0 C 816.7 32.0, 827.5 35.3, 840.0 39.0 C 852.5 42.7, 863.5 44.2, 875.0 51.0 C 886.5 57.8, 901.3 68.5, 909.0 80.0 C 916.7 91.5, 917.8 106.7, 921.0 120.0 C 924.2 133.3, 925.8 143.3, 928.0 160.0 C 930.2 176.7, 932.2 196.7, 934.0 220.0 C 935.8 243.3, 937.8 273.3, 939.0 300.0 C 940.2 326.7, 940.8 353.3, 941.0 380.0 C 941.2 406.7, 940.7 433.3, 940.0 460.0 C 939.3 486.7, 938.2 513.3, 937.0 540.0 C 935.8 566.7, 935.2 593.3, 933.0 620.0 C 930.8 646.7, 927.5 673.3, 924.0 700.0 C 920.5 726.7, 917.7 753.3, 912.0 780.0 C 906.3 806.7, 899.5 833.3, 890.0 860.0 C 880.5 886.7, 871.2 913.3, 855.0 940.0 C 838.8 966.7, 814.8 993.3, 793.0 1020.0 C 771.2 1046.7, 748.7 1073.3, 724.0 1100.0 C 699.3 1126.7, 673.7 1156.7, 645.0 1180.0 C 616.3 1203.3, 572.8 1226.3, 552.0 1240.0 C 531.2 1253.7, 528.0 1255.7, 520.0 1262.0 C 512.0 1268.3, 508.7 1273.8, 504.0 1278.0 C 499.3 1282.2, 496.0 1284.7, 492.0 1287.0 C 488.0 1289.3, 484.0 1292.0, 480.0 1292.0 C 476.0 1292.0, 472.0 1289.3, 468.0 1287.0 C 464.0 1284.7, 460.7 1282.2, 456.0 1278.0 C 451.3 1273.8, 448.0 1268.3, 440.0 1262.0 C 432.0 1255.7, 429.0 1253.7, 408.0 1240.0 C 387.0 1226.3, 342.8 1203.3, 314.0 1180.0 C 285.2 1156.7, 259.7 1126.7, 235.0 1100.0 C 210.3 1073.3, 187.8 1046.7, 166.0 1020.0 C 144.2 993.3, 120.2 966.7, 104.0 940.0 C 87.8 913.3, 78.5 886.7, 69.0 860.0 C 59.5 833.3, 52.7 806.7, 47.0 780.0 C 41.3 753.3, 38.3 726.7, 35.0 700.0 C 31.7 673.3, 29.2 646.7, 27.0 620.0 C 24.8 593.3, 23.3 566.7, 22.0 540.0 C 20.7 513.3, 19.7 486.7, 19.0 460.0 C 18.3 433.3, 17.8 406.7, 18.0 380.0 C 18.2 353.3, 19.0 326.7, 20.0 300.0 C 21.0 273.3, 22.2 243.3, 24.0 220.0 C 25.8 196.7, 28.7 176.7, 31.0 160.0 C 33.3 143.3, 34.8 133.3, 38.0 120.0 C 41.2 106.7, 42.2 91.7, 50.0 80.0 C 57.8 68.3, 79.2 55.0, 85.0 50.0 C 90.8 45.0, 79.2 52.0, 85.0 50.0 Z" fill="none" stroke="#7f8183" stroke-width="2.2"/>
  </g>
</svg>