<svg xmlns="http://www.w3.org/2000/svg" width="512" height="512" viewBox="0 0 512 512">
<defs>
<clipPath id="ghostClip">
<path d="M256 70 C170 70 110 140 110 240 C110 355 175 430 256 430 C337 430 402 355 402 240 C402 140 342 70 256 70 Z"/>
</clipPath>
</defs>
<g id="ghost">
<g id="bg_particles">
<circle cx="71.29" cy="271.50" r="1.91" fill="#000" opacity="0.170"/>
<circle cx="259.21" cy="56.20" r="2.08" fill="#000" opacity="0.174"/>
<circle cx="79.19" cy="223.39" r="3.07" fill="#000" opacity="0.193"/>
<circle cx="136.44" cy="311.05" r="2.44" fill="#000" opacity="0.289"/>
<circle cx="461.74" cy="60.12" r="3.15" fill="#000" opacity="0.251"/>
<circle cx="102.32" cy="90.89" r="1.77" fill="#000" opacity="0.436"/>
<circle cx="65.75" cy="128.97" r="2.70" fill="#000" opacity="0.300"/>
<circle cx="418.06" cy="355.12" r="1.72" fill="#000" opacity="0.493"/>
<circle cx="91.00" cy="220.63" r="2.89" fill="#000" opacity="0.203"/>
<circle cx="251.23" cy="56.94" r="2.67" fill="#000" opacity="0.418"/>
<circle cx="237.08" cy="402.87" r="2.19" fill="#000" opacity="0.382"/>
<circle cx="66.21" cy="343.04" r="2.62" fill="#000" opacity="0.498"/>
<circle cx="328.86" cy="49.75" r="2.15" fill="#000" opacity="0.209"/>
<circle cx="90.59" cy="65.47" r="2.92" fill="#000" opacity="0.195"/>
<circle cx="146.97" cy="208.89" r="1.20" fill="#000" opacity="0.307"/>
<circle cx="277.36" cy="421.62" r="3.16" fill="#000" opacity="0.247"/>
<circle cx="219.41" cy="194.99" r="3.39" fill="#000" opacity="0.203"/>
<circle cx="116.13" cy="140.21" r="1.58" fill="#000" opacity="0.320"/>
<circle cx="451.74" cy="338.29" r="2.29" fill="#000" opacity="0.366"/>
<circle cx="332.12" cy="63.32" r="3.25" fill="#000" opacity="0.423"/>
<circle cx="417.79" cy="384.68" r="1.98" fill="#000" opacity="0.290"/>
<circle cx="84.73" cy="314.01" r="1.16" fill="#000" opacity="0.174"/>
<circle cx="130.19" cy="110.11" r="1.85" fill="#000" opacity="0.168"/>
<circle cx="40.10" cy="105.35" r="1.25" fill="#000" opacity="0.277"/>
<circle cx="51.02" cy="417.71" r="2.54" fill="#000" opacity="0.202"/>
<circle cx="93.07" cy="406.74" r="3.48" fill="#000" opacity="0.313"/>
<circle cx="188.02" cy="154.37" r="1.40" fill="#000" opacity="0.158"/>
<circle cx="450.83" cy="268.21" r="1.37" fill="#000" opacity="0.340"/>
<circle cx="51.68" cy="268.14" r="3.45" fill="#000" opacity="0.452"/>
<circle cx="112.16" cy="373.48" r="2.33" fill="#000" opacity="0.423"/>
<circle cx="182.42" cy="136.35" r="3.46" fill="#000" opacity="0.448"/>
<circle cx="388.23" cy="393.52" r="2.85" fill="#000" opacity="0.229"/>
<circle cx="52.07" cy="160.71" r="1.65" fill="#000" opacity="0.392"/>
<circle cx="453.21" cy="233.20" r="3.34" fill="#000" opacity="0.496"/>
<circle cx="452.56" cy="197.52" r="1.55" fill="#000" opacity="0.229"/>
<circle cx="124.98" cy="128.29" r="2.56" fill="#000" opacity="0.465"/>
<circle cx="385.45" cy="76.62" r="2.65" fill="#000" opacity="0.468"/>
<circle cx="117.12" cy="380.91" r="1.83" fill="#000" opacity="0.430"/>
<circle cx="459.76" cy="211.00" r="2.00" fill="#000" opacity="0.481"/>
<circle cx="105.30" cy="430.90" r="3.02" fill="#000" opacity="0.201"/>
<circle cx="397.05" cy="463.49" r="2.64" fill="#000" opacity="0.273"/>
<circle cx="459.42" cy="320.66" r="2.32" fill="#000" opacity="0.477"/>
<circle cx="227.41" cy="416.59" r="1.53" fill="#000" opacity="0.238"/>
<circle cx="433.13" cy="192.83" r="2.15" fill="#000" opacity="0.354"/>
<circle cx="430.66" cy="221.71" r="3.29" fill="#000" opacity="0.326"/>
<circle cx="385.24" cy="114.45" r="2.18" fill="#000" opacity="0.404"/>
<circle cx="368.32" cy="434.19" r="2.11" fill="#000" opacity="0.364"/>
<circle cx="446.73" cy="342.06" r="3.19" fill="#000" opacity="0.480"/>
<circle cx="152.14" cy="281.71" r="3.10" fill="#000" opacity="0.198"/>
<circle cx="92.54" cy="231.00" r="1.18" fill="#000" opacity="0.234"/>
<circle cx="71.59" cy="329.21" r="2.96" fill="#000" opacity="0.464"/>
<circle cx="101.77" cy="421.38" r="3.42" fill="#000" opacity="0.227"/>
<circle cx="451.48" cy="212.05" r="2.22" fill="#000" opacity="0.496"/>
<circle cx="399.62" cy="109.75" r="2.08" fill="#000" opacity="0.330"/>
<circle cx="351.97" cy="48.42" r="2.39" fill="#000" opacity="0.304"/>
<circle cx="47.81" cy="183.21" r="2.56" fill="#000" opacity="0.329"/>
<circle cx="67.77" cy="465.56" r="2.97" fill="#000" opacity="0.490"/>
<circle cx="85.26" cy="154.72" r="1.10" fill="#000" opacity="0.423"/>
<circle cx="156.83" cy="95.97" r="2.06" fill="#000" opacity="0.469"/>
<circle cx="393.80" cy="151.72" r="1.37" fill="#000" opacity="0.472"/>
<circle cx="64.85" cy="337.30" r="2.06" fill="#000" opacity="0.175"/>
<circle cx="445.37" cy="314.08" r="3.00" fill="#000" opacity="0.179"/>
<circle cx="409.89" cy="68.78" r="3.16" fill="#000" opacity="0.309"/>
<circle cx="186.51" cy="278.92" r="1.67" fill="#000" opacity="0.195"/>
<circle cx="109.75" cy="61.76" r="1.50" fill="#000" opacity="0.259"/>
<circle cx="47.85" cy="148.19" r="1.04" fill="#000" opacity="0.407"/>
<circle cx="443.77" cy="85.91" r="3.05" fill="#000" opacity="0.301"/>
<circle cx="258.89" cy="337.10" r="1.86" fill="#000" opacity="0.441"/>
<circle cx="190.14" cy="63.50" r="1.32" fill="#000" opacity="0.175"/>
<circle cx="76.50" cy="403.43" r="3.18" fill="#000" opacity="0.385"/>
<circle cx="153.72" cy="455.49" r="3.43" fill="#000" opacity="0.341"/>
<circle cx="145.60" cy="457.17" r="1.77" fill="#000" opacity="0.275"/>
<circle cx="40.46" cy="204.86" r="2.19" fill="#000" opacity="0.326"/>
<circle cx="154.12" cy="78.77" r="2.00" fill="#000" opacity="0.165"/>
<circle cx="49.72" cy="171.43" r="1.58" fill="#000" opacity="0.355"/>
<circle cx="180.89" cy="465.40" r="1.37" fill="#000" opacity="0.403"/>
<circle cx="317.87" cy="58.92" r="3.09" fill="#000" opacity="0.462"/>
<circle cx="311.01" cy="357.02" r="1.35" fill="#000" opacity="0.333"/>
<circle cx="257.89" cy="400.69" r="3.07" fill="#000" opacity="0.354"/>
<circle cx="425.70" cy="335.01" r="2.73" fill="#000" opacity="0.230"/>
<circle cx="53.46" cy="97.50" r="1.90" fill="#000" opacity="0.187"/>
<circle cx="41.43" cy="384.61" r="2.87" fill="#000" opacity="0.326"/>
<circle cx="359.61" cy="461.52" r="2.23" fill="#000" opacity="0.284"/>
<circle cx="103.69" cy="149.70" r="2.86" fill="#000" opacity="0.257"/>
<circle cx="285.27" cy="45.39" r="1.15" fill="#000" opacity="0.244"/>
<circle cx="241.46" cy="91.19" r="1.50" fill="#000" opacity="0.492"/>
<circle cx="444.46" cy="47.56" r="2.15" fill="#000" opacity="0.437"/>
<circle cx="458.22" cy="234.16" r="1.67" fill="#000" opacity="0.223"/>
<circle cx="448.49" cy="131.03" r="2.45" fill="#000" opacity="0.200"/>
<circle cx="394.33" cy="259.78" r="2.76" fill="#000" opacity="0.231"/>
<circle cx="427.81" cy="250.01" r="1.06" fill="#000" opacity="0.151"/>
<circle cx="100.79" cy="188.59" r="1.79" fill="#000" opacity="0.444"/>
<circle cx="40.75" cy="364.32" r="3.10" fill="#000" opacity="0.192"/>
<circle cx="440.20" cy="348.03" r="3.25" fill="#000" opacity="0.251"/>
<circle cx="200.80" cy="209.73" r="2.47" fill="#000" opacity="0.276"/>
<circle cx="83.94" cy="400.58" r="1.71" fill="#000" opacity="0.477"/>
<circle cx="122.01" cy="201.29" r="3.21" fill="#000" opacity="0.434"/>
<circle cx="312.55" cy="434.60" r="2.37" fill="#000" opacity="0.402"/>
<circle cx="61.37" cy="356.38" r="2.13" fill="#000" opacity="0.413"/>
<circle cx="440.37" cy="95.00" r="2.18" fill="#000" opacity="0.270"/>
<circle cx="168.64" cy="359.26" r="1.65" fill="#000" opacity="0.380"/>
<circle cx="112.29" cy="109.84" r="1.52" fill="#000" opacity="0.467"/>
<circle cx="254.74" cy="135.05" r="3.49" fill="#000" opacity="0.307"/>
<circle cx="100.31" cy="123.12" r="1.23" fill="#000" opacity="0.270"/>
<circle cx="79.35" cy="143.30" r="1.65" fill="#000" opacity="0.349"/>
<circle cx="423.29" cy="363.85" r="2.03" fill="#000" opacity="0.295"/>
<circle cx="66.81" cy="159.89" r="3.42" fill="#000" opacity="0.194"/>
<circle cx="257.47" cy="312.00" r="1.54" fill="#000" opacity="0.245"/>
<circle cx="452.10" cy="406.63" r="3.18" fill="#000" opacity="0.158"/>
<circle cx="53.93" cy="346.51" r="3.24" fill="#000" opacity="0.316"/>
<circle cx="293.66" cy="40.08" r="1.98" fill="#000" opacity="0.474"/>
<circle cx="396.65" cy="409.56" r="3.43" fill="#000" opacity="0.237"/>
<circle cx="87.11" cy="106.69" r="2.31" fill="#000" opacity="0.389"/>
<circle cx="446.72" cy="351.79" r="2.62" fill="#000" opacity="0.418"/>
<circle cx="377.95" cy="140.47" r="2.61" fill="#000" opacity="0.256"/>
<circle cx="95.28" cy="148.77" r="2.59" fill="#000" opacity="0.395"/>
<circle cx="88.44" cy="70.39" r="2.31" fill="#000" opacity="0.354"/>
</g>
<g id="face_particles" clip-path="url(#ghostClip)">
<circle cx="382.65" cy="259.87" r="2.02" fill="#000" opacity="0.818"/>
<circle cx="323.54" cy="191.03" r="2.75" fill="#000" opacity="0.831"/>
<circle cx="229.61" cy="170.48" r="3.98" fill="#000" opacity="0.378"/>
<circle cx="102.25" cy="203.60" r="3.28" fill="#000" opacity="0.282"/>
<circle cx="354.03" cy="368.04" r="1.90" fill="#000" opacity="0.680"/>
<circle cx="193.87" cy="401.20" r="1.94" fill="#000" opacity="0.581"/>
<circle cx="254.60" cy="141.80" r="2.51" fill="#000" opacity="0.492"/>
<circle cx="398.43" cy="199.99" r="4.01" fill="#000" opacity="0.605"/>
<circle cx="101.52" cy="337.42" r="2.38" fill="#000" opacity="0.297"/>
<circle cx="183.34" cy="209.10" r="1.66" fill="#000" opacity="1.000"/>
<circle cx="159.44" cy="211.22" r="3.68" fill="#000" opacity="0.627"/>
<circle cx="107.25" cy="259.12" r="3.97" fill="#000" opacity="0.287"/>
<circle cx="211.20" cy="432.77" r="2.49" fill="#000" opacity="0.547"/>
<circle cx="387.52" cy="204.02" r="4.08" fill="#000" opacity="0.588"/>
<circle cx="177.52" cy="358.82" r="2.10" fill="#000" opacity="0.212"/>
<circle cx="300.21" cy="451.73" r="1.98" fill="#000" opacity="0.363"/>
<circle cx="218.55" cy="167.93" r="2.73" fill="#000" opacity="0.848"/>
<circle cx="362.51" cy="381.85" r="2.25" fill="#000" opacity="0.320"/>
<circle cx="210.41" cy="385.72" r="1.87" fill="#000" opacity="0.658"/>
<circle cx="102.18" cy="291.56" r="4.14" fill="#000" opacity="0.584"/>
<circle cx="255.50" cy="356.01" r="1.98" fill="#000" opacity="0.579"/>
<circle cx="295.70" cy="341.38" r="3.76" fill="#000" opacity="0.767"/>
<circle cx="187.95" cy="297.42" r="3.44" fill="#000" opacity="0.442"/>
<circle cx="172.65" cy="165.59" r="3.86" fill="#000" opacity="0.609"/>
<circle cx="198.69" cy="227.39" r="2.77" fill="#000" opacity="0.549"/>
<circle cx="124.77" cy="259.65" r="3.74" fill="#000" opacity="0.761"/>
<circle cx="213.84" cy="420.11" r="2.05" fill="#000" opacity="0.566"/>
<circle cx="287.73" cy="319.18" r="2.37" fill="#000" opacity="0.414"/>
<circle cx="158.31" cy="169.51" r="3.19" fill="#000" opacity="0.357"/>
<circle cx="314.85" cy="140.91" r="1.89" fill="#000" opacity="0.630"/>
<circle cx="271.85" cy="90.94" r="2.45" fill="#000" opacity="0.368"/>
<circle cx="301.93" cy="102.37" r="3.32" fill="#000" opacity="0.328"/>
<circle cx="184.49" cy="191.11" r="2.21" fill="#000" opacity="0.740"/>
<circle cx="208.87" cy="235.74" r="4.19" fill="#000" opacity="0.679"/>
<circle cx="156.08" cy="363.49" r="1.32" fill="#000" opacity="0.649"/>
<circle cx="230.84" cy="401.35" r="3.86" fill="#000" opacity="0.467"/>
<circle cx="273.01" cy="327.67" r="1.56" fill="#000" opacity="0.811"/>
<circle cx="213.38" cy="271.83" r="2.12" fill="#000" opacity="0.808"/>
<circle cx="412.93" cy="262.92" r="3.99" fill="#000" opacity="0.365"/>
<circle cx="143.89" cy="387.19" r="2.47" fill="#000" opacity="0.549"/>
<circle cx="364.63" cy="140.02" r="2.46" fill="#000" opacity="0.436"/>
<circle cx="217.58" cy="115.45" r="3.40" fill="#000" opacity="0.567"/>
<circle cx="129.85" cy="310.80" r="3.12" fill="#000" opacity="0.349"/>
<circle cx="229.62" cy="303.88" r="3.21" fill="#000" opacity="0.702"/>
<circle cx="295.23" cy="265.70" r="3.51" fill="#000" opacity="1.000"/>
<circle cx="242.24" cy="138.62" r="1.61" fill="#000" opacity="0.239"/>
<circle cx="233.10" cy="102.60" r="2.78" fill="#000" opacity="0.167"/>
<circle cx="347.62" cy="274.71" r="2.76" fill="#000" opacity="0.563"/>
<circle cx="332.59" cy="399.15" r="4.15" fill="#000" opacity="0.424"/>
<circle cx="112.62" cy="208.87" r="1.76" fill="#000" opacity="0.695"/>
<circle cx="181.75" cy="399.41" r="2.76" fill="#000" opacity="0.642"/>
<circle cx="159.75" cy="172.78" r="2.23" fill="#000" opacity="0.258"/>
<circle cx="315.29" cy="432.12" r="3.58" fill="#000" opacity="0.216"/>
<circle cx="266.14" cy="325.89" r="3.83" fill="#000" opacity="0.762"/>
<circle cx="282.41" cy="426.84" r="4.18" fill="#000" opacity="0.488"/>
<circle cx="221.10" cy="392.04" r="4.17" fill="#000" opacity="0.551"/>
<circle cx="209.88" cy="378.50" r="1.81" fill="#000" opacity="0.677"/>
<circle cx="284.34" cy="337.12" r="1.31" fill="#000" opacity="0.308"/>
<circle cx="140.29" cy="317.58" r="2.79" fill="#000" opacity="0.689"/>
<circle cx="134.57" cy="158.18" r="1.36" fill="#000" opacity="0.190"/>
<circle cx="208.14" cy="108.61" r="1.95" fill="#000" opacity="0.414"/>
<circle cx="285.40" cy="148.72" r="2.68" fill="#000" opacity="0.272"/>
<circle cx="223.64" cy="173.34" r="3.17" fill="#000" opacity="0.622"/>
<circle cx="206.61" cy="329.70" r="4.02" fill="#000" opacity="0.829"/>
<circle cx="173.00" cy="435.44" r="2.84" fill="#000" opacity="0.330"/>
<circle cx="272.80" cy="450.78" r="1.88" fill="#000" opacity="0.432"/>
<circle cx="258.29" cy="328.04" r="1.81" fill="#000" opacity="0.552"/>
<circle cx="336.91" cy="255.76" r="2.61" fill="#000" opacity="0.503"/>
<circle cx="125.74" cy="160.24" r="2.27" fill="#000" opacity="0.563"/>
<circle cx="178.78" cy="292.05" r="3.59" fill="#000" opacity="0.683"/>
<circle cx="162.61" cy="425.82" r="2.06" fill="#000" opacity="0.258"/>
<circle cx="337.23" cy="199.02" r="2.25" fill="#000" opacity="0.486"/>
<circle cx="245.93" cy="409.28" r="3.79" fill="#000" opacity="0.440"/>
<circle cx="330.13" cy="298.84" r="1.91" fill="#000" opacity="0.752"/>
<circle cx="204.81" cy="123.16" r="1.42" fill="#000" opacity="0.502"/>
<circle cx="300.18" cy="350.77" r="1.49" fill="#000" opacity="0.673"/>
<circle cx="358.97" cy="325.01" r="3.13" fill="#000" opacity="0.374"/>
<circle cx="340.93" cy="149.05" r="2.53" fill="#000" opacity="0.215"/>
<circle cx="175.71" cy="180.86" r="2.37" fill="#000" opacity="0.498"/>
<circle cx="227.26" cy="243.94" r="2.31" fill="#000" opacity="0.976"/>
<circle cx="92.44" cy="266.24" r="3.61" fill="#000" opacity="0.253"/>
<circle cx="254.21" cy="207.35" r="2.06" fill="#000" opacity="0.937"/>
<circle cx="184.63" cy="153.03" r="2.75" fill="#000" opacity="0.281"/>
<circle cx="321.06" cy="387.64" r="2.33" fill="#000" opacity="0.416"/>
<circle cx="221.22" cy="430.07" r="3.88" fill="#000" opacity="0.184"/>
<circle cx="159.02" cy="172.91" r="2.75" fill="#000" opacity="0.482"/>
<circle cx="382.71" cy="160.77" r="2.84" fill="#000" opacity="0.578"/>
<circle cx="339.49" cy="329.98" r="2.25" fill="#000" opacity="0.328"/>
<circle cx="369.23" cy="336.46" r="1.79" fill="#000" opacity="0.417"/>
<circle cx="346.23" cy="302.46" r="2.64" fill="#000" opacity="0.856"/>
<circle cx="169.52" cy="143.55" r="3.34" fill="#000" opacity="0.653"/>
<circle cx="172.70" cy="198.89" r="1.77" fill="#000" opacity="0.554"/>
<circle cx="353.31" cy="365.65" r="1.87" fill="#000" opacity="0.516"/>
<circle cx="222.68" cy="389.31" r="2.75" fill="#000" opacity="0.595"/>
<circle cx="243.88" cy="123.14" r="2.47" fill="#000" opacity="0.494"/>
<circle cx="390.64" cy="241.31" r="3.47" fill="#000" opacity="0.468"/>
<circle cx="315.27" cy="328.03" r="2.21" fill="#000" opacity="0.723"/>
<circle cx="123.30" cy="237.03" r="3.37" fill="#000" opacity="0.606"/>
<circle cx="173.52" cy="238.67" r="3.10" fill="#000" opacity="0.674"/>
<circle cx="313.83" cy="446.38" r="3.20" fill="#000" opacity="0.495"/>
<circle cx="219.27" cy="265.83" r="1.41" fill="#000" opacity="0.836"/>
<circle cx="262.34" cy="106.45" r="2.87" fill="#000" opacity="0.449"/>
<circle cx="260.02" cy="327.10" r="2.81" fill="#000" opacity="0.638"/>
<circle cx="316.84" cy="225.92" r="1.65" fill="#000" opacity="1.000"/>
<circle cx="208.31" cy="88.21" r="2.46" fill="#000" opacity="0.152"/>
<circle cx="229.13" cy="237.42" r="2.32" fill="#000" opacity="0.564"/>
<circle cx="220.35" cy="151.93" r="3.55" fill="#000" opacity="0.673"/>
<circle cx="300.32" cy="257.36" r="1.96" fill="#000" opacity="1.000"/>
<circle cx="207.53" cy="326.91" r="3.67" fill="#000" opacity="0.636"/>
<circle cx="188.13" cy="289.79" r="3.72" fill="#000" opacity="0.583"/>
<circle cx="371.72" cy="174.64" r="2.04" fill="#000" opacity="0.468"/>
<circle cx="329.19" cy="180.30" r="2.18" fill="#000" opacity="0.623"/>
<circle cx="232.40" cy="326.29" r="2.35" fill="#000" opacity="1.000"/>
<circle cx="307.47" cy="167.51" r="1.71" fill="#000" opacity="0.400"/>
<circle cx="347.18" cy="207.04" r="3.92" fill="#000" opacity="0.928"/>
<circle cx="291.76" cy="385.33" r="3.89" fill="#000" opacity="0.700"/>
<circle cx="367.80" cy="145.92" r="2.84" fill="#000" opacity="0.562"/>
<circle cx="235.73" cy="426.90" r="2.07" fill="#000" opacity="0.294"/>
<circle cx="136.98" cy="267.16" r="2.65" fill="#000" opacity="0.324"/>
<circle cx="253.15" cy="269.25" r="3.80" fill="#000" opacity="0.316"/>
<circle cx="368.45" cy="256.86" r="3.23" fill="#000" opacity="0.840"/>
<circle cx="214.74" cy="236.71" r="1.52" fill="#000" opacity="0.931"/>
<circle cx="292.19" cy="344.86" r="2.26" fill="#000" opacity="1.000"/>
<circle cx="259.51" cy="263.72" r="1.40" fill="#000" opacity="0.932"/>
<circle cx="297.34" cy="203.83" r="2.36" fill="#000" opacity="0.706"/>
<circle cx="264.43" cy="380.94" r="2.56" fill="#000" opacity="0.511"/>
<circle cx="273.83" cy="403.96" r="3.70" fill="#000" opacity="0.432"/>
<circle cx="257.24" cy="176.40" r="4.13" fill="#000" opacity="0.604"/>
<circle cx="352.34" cy="200.67" r="2.17" fill="#000" opacity="0.724"/>
<circle cx="300.49" cy="386.53" r="3.40" fill="#000" opacity="0.736"/>
<circle cx="270.98" cy="85.38" r="1.32" fill="#000" opacity="0.219"/>
<circle cx="395.07" cy="314.56" r="3.59" fill="#000" opacity="0.612"/>
<circle cx="292.87" cy="317.85" r="3.32" fill="#000" opacity="0.787"/>
<circle cx="315.72" cy="152.13" r="2.63" fill="#000" opacity="0.671"/>
<circle cx="392.65" cy="333.84" r="3.69" fill="#000" opacity="0.534"/>
<circle cx="276.49" cy="170.78" r="2.52" fill="#000" opacity="0.428"/>
<circle cx="233.12" cy="328.12" r="1.46" fill="#000" opacity="0.759"/>
<circle cx="218.76" cy="307.71" r="4.14" fill="#000" opacity="0.708"/>
<circle cx="161.05" cy="127.22" r="1.31" fill="#000" opacity="0.497"/>
<circle cx="328.39" cy="164.33" r="1.84" fill="#000" opacity="0.268"/>
<circle cx="325.05" cy="253.84" r="2.04" fill="#000" opacity="1.000"/>
<circle cx="193.65" cy="364.07" r="3.80" fill="#000" opacity="0.523"/>
<circle cx="110.73" cy="215.70" r="2.57" fill="#000" opacity="0.570"/>
<circle cx="138.82" cy="391.92" r="3.17" fill="#000" opacity="0.438"/>
<circle cx="228.93" cy="223.15" r="4.04" fill="#000" opacity="1.000"/>
<circle cx="278.05" cy="184.88" r="4.12" fill="#000" opacity="0.748"/>
<circle cx="364.04" cy="201.14" r="4.13" fill="#000" opacity="0.849"/>
<circle cx="289.38" cy="191.53" r="3.88" fill="#000" opacity="0.567"/>
<circle cx="316.99" cy="311.73" r="3.64" fill="#000" opacity="0.497"/>
<circle cx="230.43" cy="305.52" r="3.87" fill="#000" opacity="0.348"/>
<circle cx="279.73" cy="177.28" r="3.64" fill="#000" opacity="0.702"/>
<circle cx="392.54" cy="207.21" r="2.91" fill="#000" opacity="0.674"/>
<circle cx="168.23" cy="313.83" r="2.65" fill="#000" opacity="0.376"/>
<circle cx="345.81" cy="160.48" r="3.90" fill="#000" opacity="0.763"/>
<circle cx="263.21" cy="260.40" r="1.85" fill="#000" opacity="0.480"/>
<circle cx="150.63" cy="352.44" r="2.94" fill="#000" opacity="0.395"/>
<circle cx="261.68" cy="126.09" r="4.19" fill="#000" opacity="0.329"/>
<circle cx="142.53" cy="309.86" r="2.81" fill="#000" opacity="0.217"/>
<circle cx="376.81" cy="264.39" r="2.06" fill="#000" opacity="0.730"/>
<circle cx="157.33" cy="139.10" r="1.45" fill="#000" opacity="0.467"/>
<circle cx="288.36" cy="227.93" r="4.08" fill="#000" opacity="0.555"/>
<circle cx="277.28" cy="327.66" r="3.24" fill="#000" opacity="0.618"/>
<circle cx="350.50" cy="355.94" r="4.16" fill="#000" opacity="0.225"/>
<circle cx="314.37" cy="187.51" r="3.50" fill="#000" opacity="0.366"/>
<circle cx="197.89" cy="170.37" r="2.70" fill="#000" opacity="0.366"/>
<circle cx="169.69" cy="123.69" r="1.34" fill="#000" opacity="0.510"/>
<circle cx="368.94" cy="322.63" r="2.29" fill="#000" opacity="0.649"/>
<circle cx="248.59" cy="322.56" r="1.94" fill="#000" opacity="0.349"/>
<circle cx="326.53" cy="291.88" r="3.83" fill="#000" opacity="0.500"/>
<circle cx="226.89" cy="128.83" r="3.73" fill="#000" opacity="0.333"/>
<circle cx="146.37" cy="266.31" r="3.92" fill="#000" opacity="0.328"/>
<circle cx="386.36" cy="338.99" r="2.68" fill="#000" opacity="0.306"/>
<circle cx="176.07" cy="147.66" r="4.17" fill="#000" opacity="0.771"/>
<circle cx="186.51" cy="432.44" r="3.41" fill="#000" opacity="0.292"/>
<circle cx="357.32" cy="204.77" r="1.31" fill="#000" opacity="0.900"/>
<circle cx="264.77" cy="141.19" r="3.94" fill="#000" opacity="0.283"/>
<circle cx="279.54" cy="121.61" r="3.53" fill="#000" opacity="0.488"/>
<circle cx="119.85" cy="314.51" r="2.09" fill="#000" opacity="0.276"/>
<circle cx="293.10" cy="355.18" r="2.99" fill="#000" opacity="0.399"/>
<circle cx="112.68" cy="365.41" r="3.39" fill="#000" opacity="0.177"/>
<circle cx="358.51" cy="202.44" r="3.81" fill="#000" opacity="0.633"/>
<circle cx="248.28" cy="422.53" r="1.84" fill="#000" opacity="0.611"/>
<circle cx="212.14" cy="132.03" r="3.03" fill="#000" opacity="0.182"/>
<circle cx="262.54" cy="247.76" r="1.65" fill="#000" opacity="0.916"/>
<circle cx="360.46" cy="419.84" r="3.36" fill="#000" opacity="0.318"/>
<circle cx="254.29" cy="275.46" r="2.86" fill="#000" opacity="0.329"/>
<circle cx="173.65" cy="400.03" r="1.58" fill="#000" opacity="0.515"/>
<circle cx="288.80" cy="301.36" r="3.34" fill="#000" opacity="0.401"/>
<circle cx="377.94" cy="359.01" r="1.66" fill="#000" opacity="0.401"/>
<circle cx="256.25" cy="179.65" r="2.48" fill="#000" opacity="0.300"/>
<circle cx="286.30" cy="418.05" r="2.96" fill="#000" opacity="0.568"/>
<circle cx="219.29" cy="237.40" r="2.82" fill="#000" opacity="0.700"/>
<circle cx="202.72" cy="163.55" r="2.56" fill="#000" opacity="0.879"/>
<circle cx="359.96" cy="412.53" r="2.80" fill="#000" opacity="0.577"/>
<circle cx="230.30" cy="324.40" r="2.84" fill="#000" opacity="0.353"/>
<circle cx="233.90" cy="271.96" r="1.70" fill="#000" opacity="1.000"/>
<circle cx="302.72" cy="173.97" r="2.09" fill="#000" opacity="0.636"/>
<circle cx="396.05" cy="319.72" r="2.81" fill="#000" opacity="0.375"/>
<circle cx="191.79" cy="330.48" r="3.02" fill="#000" opacity="0.932"/>
<circle cx="260.55" cy="175.05" r="2.85" fill="#000" opacity="0.305"/>
<circle cx="187.89" cy="231.68" r="2.01" fill="#000" opacity="0.411"/>
<circle cx="271.28" cy="409.30" r="2.95" fill="#000" opacity="0.555"/>
<circle cx="157.39" cy="356.25" r="2.89" fill="#000" opacity="0.516"/>
<circle cx="245.76" cy="192.31" r="1.94" fill="#000" opacity="0.605"/>
<circle cx="217.45" cy="305.13" r="2.32" fill="#000" opacity="1.000"/>
<circle cx="169.72" cy="293.23" r="2.13" fill="#000" opacity="0.987"/>
<circle cx="188.52" cy="381.57" r="1.49" fill="#000" opacity="0.686"/>
<circle cx="236.20" cy="90.43" r="2.58" fill="#000" opacity="0.443"/>
<circle cx="334.75" cy="128.35" r="2.32" fill="#000" opacity="0.509"/>
<circle cx="261.86" cy="367.89" r="3.50" fill="#000" opacity="0.587"/>
<circle cx="284.33" cy="269.13" r="2.96" fill="#000" opacity="0.713"/>
<circle cx="349.62" cy="422.83" r="2.40" fill="#000" opacity="0.354"/>
<circle cx="242.11" cy="361.45" r="2.43" fill="#000" opacity="0.662"/>
<circle cx="217.89" cy="197.02" r="3.76" fill="#000" opacity="0.695"/>
<circle cx="237.53" cy="140.53" r="1.72" fill="#000" opacity="0.471"/>
<circle cx="231.73" cy="438.34" r="1.44" fill="#000" opacity="0.432"/>
<circle cx="261.76" cy="277.08" r="2.43" fill="#000" opacity="0.630"/>
<circle cx="287.26" cy="208.95" r="3.26" fill="#000" opacity="0.744"/>
<circle cx="123.66" cy="218.51" r="2.93" fill="#000" opacity="0.573"/>
<circle cx="251.62" cy="245.47" r="4.19" fill="#000" opacity="0.590"/>
<circle cx="265.95" cy="399.51" r="2.22" fill="#000" opacity="0.784"/>
<circle cx="363.59" cy="275.16" r="3.89" fill="#000" opacity="0.718"/>
<circle cx="384.09" cy="237.56" r="2.14" fill="#000" opacity="0.555"/>
<circle cx="257.61" cy="142.12" r="3.13" fill="#000" opacity="0.463"/>
<circle cx="226.77" cy="387.93" r="3.30" fill="#000" opacity="0.221"/>
<circle cx="191.47" cy="410.28" r="3.24" fill="#000" opacity="0.274"/>
<circle cx="255.29" cy="291.83" r="3.18" fill="#000" opacity="0.774"/>
<circle cx="226.66" cy="114.82" r="3.50" fill="#000" opacity="0.207"/>
<circle cx="263.42" cy="402.49" r="3.64" fill="#000" opacity="0.242"/>
<circle cx="197.53" cy="358.34" r="1.79" fill="#000" opacity="0.404"/>
<circle cx="283.15" cy="208.05" r="2.42" fill="#000" opacity="0.340"/>
<circle cx="236.08" cy="319.27" r="1.43" fill="#000" opacity="1.000"/>
<circle cx="373.06" cy="194.07" r="3.67" fill="#000" opacity="0.431"/>
<circle cx="289.84" cy="458.61" r="4.05" fill="#000" opacity="0.258"/>
<circle cx="219.63" cy="359.57" r="2.20" fill="#000" opacity="0.862"/>
<circle cx="250.85" cy="390.03" r="1.80" fill="#000" opacity="0.446"/>
<circle cx="186.93" cy="295.23" r="2.85" fill="#000" opacity="0.592"/>
<circle cx="224.05" cy="91.83" r="3.69" fill="#000" opacity="0.291"/>
<circle cx="171.83" cy="143.39" r="1.99" fill="#000" opacity="0.214"/>
<circle cx="310.21" cy="204.98" r="3.35" fill="#000" opacity="0.392"/>
<circle cx="179.99" cy="407.35" r="2.59" fill="#000" opacity="0.577"/>
<circle cx="356.63" cy="130.28" r="3.40" fill="#000" opacity="0.353"/>
<circle cx="404.81" cy="271.98" r="2.61" fill="#000" opacity="0.248"/>
<circle cx="324.14" cy="171.91" r="3.00" fill="#000" opacity="0.510"/>
<circle cx="172.26" cy="314.36" r="3.83" fill="#000" opacity="0.327"/>
<circle cx="260.30" cy="287.46" r="3.54" fill="#000" opacity="0.652"/>
<circle cx="307.98" cy="297.75" r="2.43" fill="#000" opacity="0.374"/>
<circle cx="149.43" cy="413.91" r="3.22" fill="#000" opacity="0.202"/>
<circle cx="276.46" cy="213.21" r="2.16" fill="#000" opacity="0.347"/>
<circle cx="193.72" cy="157.83" r="3.38" fill="#000" opacity="0.402"/>
<circle cx="134.62" cy="178.37" r="3.27" fill="#000" opacity="0.601"/>
<circle cx="206.97" cy="234.15" r="3.33" fill="#000" opacity="0.570"/>
<circle cx="370.42" cy="209.37" r="1.83" fill="#000" opacity="0.331"/>
<circle cx="144.46" cy="146.22" r="2.40" fill="#000" opacity="0.203"/>
<circle cx="193.60" cy="326.71" r="3.73" fill="#000" opacity="0.674"/>
<circle cx="327.49" cy="169.43" r="3.28" fill="#000" opacity="0.486"/>
<circle cx="347.24" cy="182.40" r="3.78" fill="#000" opacity="0.689"/>
<circle cx="127.69" cy="389.49" r="3.95" fill="#000" opacity="0.477"/>
<circle cx="119.43" cy="349.82" r="3.47" fill="#000" opacity="0.536"/>
<circle cx="334.74" cy="405.30" r="2.61" fill="#000" opacity="0.199"/>
<circle cx="321.42" cy="240.62" r="3.99" fill="#000" opacity="0.451"/>
<circle cx="322.90" cy="395.35" r="2.88" fill="#000" opacity="0.697"/>
<circle cx="301.38" cy="288.01" r="1.47" fill="#000" opacity="0.632"/>
<circle cx="226.84" cy="147.58" r="1.70" fill="#000" opacity="0.583"/>
<circle cx="312.21" cy="162.53" r="2.79" fill="#000" opacity="0.524"/>
<circle cx="399.83" cy="209.10" r="3.87" fill="#000" opacity="0.276"/>
<circle cx="276.88" cy="201.76" r="2.89" fill="#000" opacity="0.869"/>
<circle cx="146.84" cy="338.28" r="2.64" fill="#000" opacity="0.599"/>
<circle cx="186.48" cy="212.80" r="1.47" fill="#000" opacity="0.567"/>
<circle cx="156.05" cy="352.67" r="1.63" fill="#000" opacity="0.365"/>
<circle cx="245.66" cy="213.82" r="1.51" fill="#000" opacity="0.287"/>
<circle cx="277.01" cy="109.61" r="2.56" fill="#000" opacity="0.235"/>
<circle cx="394.45" cy="329.25" r="4.01" fill="#000" opacity="0.472"/>
<circle cx="173.97" cy="165.86" r="1.38" fill="#000" opacity="0.741"/>
<circle cx="368.06" cy="186.49" r="3.15" fill="#000" opacity="0.785"/>
<circle cx="196.65" cy="216.10" r="2.37" fill="#000" opacity="1.000"/>
<circle cx="278.07" cy="322.57" r="3.35" fill="#000" opacity="1.000"/>
<circle cx="402.83" cy="267.70" r="1.76" fill="#000" opacity="0.341"/>
<circle cx="145.00" cy="246.71" r="1.56" fill="#000" opacity="0.288"/>
<circle cx="236.04" cy="143.23" r="1.31" fill="#000" opacity="0.619"/>
<circle cx="373.26" cy="387.64" r="2.12" fill="#000" opacity="0.456"/>
<circle cx="260.83" cy="237.70" r="2.57" fill="#000" opacity="0.847"/>
<circle cx="145.27" cy="186.25" r="2.93" fill="#000" opacity="0.463"/>
<circle cx="197.82" cy="253.79" r="3.94" fill="#000" opacity="1.000"/>
<circle cx="295.56" cy="397.57" r="3.26" fill="#000" opacity="0.547"/>
<circle cx="189.02" cy="299.16" r="2.69" fill="#000" opacity="0.797"/>
<circle cx="189.77" cy="205.80" r="1.38" fill="#000" opacity="0.475"/>
<circle cx="314.97" cy="248.41" r="3.22" fill="#000" opacity="0.683"/>
<circle cx="282.65" cy="235.71" r="2.94" fill="#000" opacity="0.680"/>
<circle cx="384.70" cy="289.73" r="3.80" fill="#000" opacity="0.339"/>
<circle cx="122.34" cy="282.62" r="2.72" fill="#000" opacity="0.500"/>
<circle cx="165.76" cy="299.81" r="2.79" fill="#000" opacity="0.659"/>
<circle cx="117.48" cy="232.29" r="2.57" fill="#000" opacity="0.716"/>
<circle cx="272.69" cy="357.99" r="1.63" fill="#000" opacity="0.991"/>
<circle cx="276.80" cy="382.74" r="3.55" fill="#000" opacity="0.266"/>
<circle cx="169.18" cy="217.66" r="3.02" fill="#000" opacity="0.485"/>
<circle cx="189.98" cy="355.04" r="3.88" fill="#000" opacity="0.620"/>
<circle cx="336.99" cy="204.97" r="3.27" fill="#000" opacity="0.990"/>
<circle cx="131.50" cy="217.94" r="4.05" fill="#000" opacity="0.708"/>
<circle cx="105.36" cy="312.56" r="2.89" fill="#000" opacity="0.531"/>
<circle cx="313.82" cy="169.39" r="2.60" fill="#000" opacity="0.826"/>
<circle cx="282.85" cy="111.57" r="1.62" fill="#000" opacity="0.506"/>
<circle cx="152.14" cy="292.24" r="3.29" fill="#000" opacity="0.485"/>
<circle cx="268.68" cy="347.70" r="4.05" fill="#000" opacity="0.287"/>
<circle cx="203.98" cy="126.88" r="3.83" fill="#000" opacity="0.568"/>
<circle cx="361.04" cy="343.60" r="2.68" fill="#000" opacity="0.277"/>
<circle cx="369.89" cy="226.30" r="3.07" fill="#000" opacity="0.312"/>
<circle cx="285.44" cy="82.90" r="2.35" fill="#000" opacity="0.331"/>
<circle cx="281.42" cy="224.03" r="1.32" fill="#000" opacity="0.817"/>
<circle cx="312.42" cy="176.79" r="2.75" fill="#000" opacity="0.453"/>
<circle cx="278.76" cy="281.54" r="4.18" fill="#000" opacity="0.354"/>
<circle cx="276.01" cy="381.07" r="3.55" fill="#000" opacity="0.641"/>
<circle cx="300.43" cy="213.79" r="3.61" fill="#000" opacity="1.000"/>
<circle cx="400.75" cy="344.35" r="3.51" fill="#000" opacity="0.485"/>
<circle cx="258.94" cy="325.44" r="2.90" fill="#000" opacity="0.637"/>
<circle cx="110.95" cy="203.26" r="4.17" fill="#000" opacity="0.454"/>
<circle cx="212.20" cy="164.80" r="2.31" fill="#000" opacity="0.322"/>
<circle cx="240.53" cy="247.66" r="2.18" fill="#000" opacity="0.466"/>
<circle cx="112.89" cy="188.61" r="3.41" fill="#000" opacity="0.480"/>
<circle cx="283.50" cy="97.81" r="2.98" fill="#000" opacity="0.559"/>
<circle cx="208.80" cy="382.52" r="3.82" fill="#000" opacity="0.255"/>
<circle cx="250.89" cy="433.63" r="2.05" fill="#000" opacity="0.184"/>
<circle cx="145.31" cy="174.90" r="1.93" fill="#000" opacity="0.467"/>
<circle cx="157.11" cy="312.19" r="3.18" fill="#000" opacity="0.347"/>
<circle cx="379.92" cy="204.88" r="1.85" fill="#000" opacity="0.575"/>
<circle cx="161.03" cy="198.97" r="3.18" fill="#000" opacity="0.585"/>
<circle cx="315.06" cy="203.49" r="2.50" fill="#000" opacity="0.349"/>
<circle cx="297.68" cy="202.15" r="3.03" fill="#000" opacity="0.517"/>
<circle cx="199.62" cy="103.31" r="1.71" fill="#000" opacity="0.485"/>
<circle cx="230.67" cy="285.85" r="2.91" fill="#000" opacity="0.915"/>
<circle cx="289.52" cy="200.64" r="2.05" fill="#000" opacity="0.871"/>
<circle cx="342.89" cy="383.16" r="3.54" fill="#000" opacity="0.682"/>
<circle cx="240.54" cy="179.09" r="4.03" fill="#000" opacity="0.321"/>
<circle cx="93.98" cy="260.06" r="3.55" fill="#000" opacity="0.343"/>
<circle cx="110.85" cy="270.76" r="1.83" fill="#000" opacity="0.678"/>
<circle cx="211.65" cy="126.22" r="3.44" fill="#000" opacity="0.620"/>
<circle cx="255.65" cy="325.81" r="3.62" fill="#000" opacity="0.680"/>
<circle cx="197.86" cy="435.44" r="3.43" fill="#000" opacity="0.191"/>
<circle cx="304.00" cy="229.76" r="1.47" fill="#000" opacity="0.862"/>
<circle cx="297.95" cy="156.87" r="2.06" fill="#000" opacity="0.482"/>
<circle cx="167.36" cy="148.31" r="3.16" fill="#000" opacity="0.368"/>
<circle cx="377.86" cy="174.58" r="3.69" fill="#000" opacity="0.368"/>
<circle cx="200.40" cy="264.08" r="1.77" fill="#000" opacity="0.956"/>
<circle cx="288.21" cy="250.75" r="3.86" fill="#000" opacity="0.527"/>
<circle cx="382.58" cy="212.75" r="3.80" fill="#000" opacity="0.345"/>
<circle cx="140.76" cy="366.77" r="1.79" fill="#000" opacity="0.494"/>
<circle cx="352.40" cy="347.68" r="2.76" fill="#000" opacity="0.327"/>
<circle cx="233.06" cy="108.00" r="4.17" fill="#000" opacity="0.289"/>
<circle cx="251.83" cy="120.68" r="1.82" fill="#000" opacity="0.456"/>
<circle cx="139.82" cy="367.67" r="1.63" fill="#000" opacity="0.336"/>
<circle cx="254.77" cy="441.66" r="1.92" fill="#000" opacity="0.618"/>
<circle cx="382.44" cy="364.87" r="1.81" fill="#000" opacity="0.283"/>
<circle cx="258.89" cy="232.33" r="2.35" fill="#000" opacity="0.296"/>
<circle cx="318.09" cy="332.78" r="2.89" fill="#000" opacity="0.744"/>
<circle cx="327.86" cy="228.71" r="2.52" fill="#000" opacity="1.000"/>
<circle cx="218.74" cy="223.02" r="1.71" fill="#000" opacity="1.000"/>
<circle cx="396.67" cy="169.41" r="2.39" fill="#000" opacity="0.299"/>
<circle cx="107.34" cy="349.62" r="3.17" fill="#000" opacity="0.392"/>
<circle cx="372.65" cy="274.15" r="4.18" fill="#000" opacity="0.380"/>
<circle cx="298.74" cy="369.76" r="3.37" fill="#000" opacity="0.489"/>
<circle cx="264.67" cy="316.25" r="2.23" fill="#000" opacity="0.843"/>
<circle cx="270.21" cy="156.54" r="2.07" fill="#000" opacity="0.703"/>
<circle cx="247.18" cy="360.84" r="2.68" fill="#000" opacity="0.422"/>
<circle cx="265.49" cy="279.81" r="3.66" fill="#000" opacity="0.530"/>
<circle cx="147.88" cy="401.97" r="3.16" fill="#000" opacity="0.527"/>
<circle cx="141.77" cy="168.11" r="2.33" fill="#000" opacity="0.674"/>
<circle cx="263.05" cy="250.65" r="2.45" fill="#000" opacity="1.000"/>
<circle cx="320.36" cy="249.22" r="3.62" fill="#000" opacity="1.000"/>
<circle cx="140.46" cy="343.87" r="2.81" fill="#000" opacity="0.301"/>
<circle cx="213.36" cy="204.44" r="1.35" fill="#000" opacity="0.477"/>
<circle cx="279.28" cy="88.67" r="3.38" fill="#000" opacity="0.256"/>
<circle cx="197.92" cy="164.15" r="1.56" fill="#000" opacity="0.658"/>
<circle cx="374.43" cy="147.69" r="3.60" fill="#000" opacity="0.491"/>
<circle cx="213.63" cy="83.00" r="2.36" fill="#000" opacity="0.432"/>
<circle cx="188.43" cy="232.25" r="3.65" fill="#000" opacity="0.657"/>
<circle cx="218.17" cy="302.27" r="1.86" fill="#000" opacity="1.000"/>
<circle cx="325.93" cy="217.67" r="2.26" fill="#000" opacity="0.385"/>
<circle cx="340.49" cy="220.56" r="2.74" fill="#000" opacity="1.000"/>
<circle cx="286.62" cy="254.64" r="3.73" fill="#000" opacity="0.717"/>
<circle cx="247.29" cy="430.04" r="2.72" fill="#000" opacity="0.429"/>
<circle cx="363.14" cy="339.86" r="2.46" fill="#000" opacity="0.213"/>
<circle cx="315.35" cy="292.08" r="3.53" fill="#000" opacity="0.399"/>
<circle cx="120.12" cy="373.86" r="1.46" fill="#000" opacity="0.450"/>
<circle cx="325.65" cy="262.94" r="3.30" fill="#000" opacity="0.688"/>
<circle cx="139.02" cy="202.08" r="1.32" fill="#000" opacity="0.905"/>
<circle cx="181.64" cy="172.56" r="2.04" fill="#000" opacity="0.853"/>
<circle cx="274.38" cy="274.50" r="1.45" fill="#000" opacity="0.599"/>
<circle cx="175.84" cy="147.82" r="2.86" fill="#000" opacity="0.416"/>
<circle cx="244.19" cy="265.48" r="2.36" fill="#000" opacity="1.000"/>
<circle cx="274.52" cy="85.98" r="2.85" fill="#000" opacity="0.308"/>
<circle cx="277.43" cy="197.66" r="3.61" fill="#000" opacity="0.494"/>
<circle cx="325.48" cy="394.01" r="2.62" fill="#000" opacity="0.676"/>
<circle cx="237.81" cy="425.01" r="2.56" fill="#000" opacity="0.502"/>
<circle cx="114.74" cy="309.48" r="3.97" fill="#000" opacity="0.444"/>
<circle cx="355.23" cy="269.27" r="3.26" fill="#000" opacity="0.485"/>
<circle cx="160.64" cy="408.70" r="3.96" fill="#000" opacity="0.256"/>
<circle cx="227.85" cy="335.14" r="3.93" fill="#000" opacity="0.828"/>
<circle cx="366.92" cy="185.39" r="2.99" fill="#000" opacity="0.442"/>
<circle cx="198.05" cy="409.94" r="3.62" fill="#000" opacity="0.675"/>
<circle cx="216.39" cy="327.72" r="2.88" fill="#000" opacity="0.357"/>
<circle cx="244.27" cy="363.58" r="3.27" fill="#000" opacity="0.339"/>
<circle cx="401.01" cy="280.80" r="2.31" fill="#000" opacity="0.565"/>
<circle cx="254.86" cy="446.23" r="2.71" fill="#000" opacity="0.559"/>
<circle cx="288.27" cy="286.69" r="1.71" fill="#000" opacity="0.565"/>
<circle cx="107.52" cy="201.59" r="2.02" fill="#000" opacity="0.578"/>
<circle cx="150.02" cy="387.97" r="1.50" fill="#000" opacity="0.427"/>
<circle cx="287.55" cy="254.17" r="2.79" fill="#000" opacity="0.422"/>
<circle cx="304.45" cy="119.11" r="2.32" fill="#000" opacity="0.341"/>
<circle cx="309.84" cy="132.19" r="4.03" fill="#000" opacity="0.351"/>
<circle cx="249.48" cy="126.11" r="3.85" fill="#000" opacity="0.214"/>
<circle cx="254.72" cy="284.75" r="2.66" fill="#000" opacity="0.455"/>
<circle cx="267.70" cy="272.78" r="1.87" fill="#000" opacity="0.680"/>
<circle cx="158.14" cy="117.12" r="3.83" fill="#000" opacity="0.386"/>
<circle cx="279.24" cy="347.47" r="3.48" fill="#000" opacity="0.390"/>
<circle cx="220.78" cy="277.43" r="3.88" fill="#000" opacity="0.403"/>
<circle cx="281.91" cy="160.91" r="3.57" fill="#000" opacity="0.641"/>
<circle cx="359.83" cy="205.25" r="2.64" fill="#000" opacity="0.953"/>
<circle cx="226.95" cy="231.91" r="2.01" fill="#000" opacity="0.985"/>
<circle cx="315.01" cy="127.01" r="1.71" fill="#000" opacity="0.274"/>
<circle cx="163.48" cy="200.73" r="4.19" fill="#000" opacity="0.899"/>
<circle cx="249.31" cy="268.90" r="3.93" fill="#000" opacity="0.975"/>
<circle cx="301.01" cy="146.61" r="3.75" fill="#000" opacity="0.645"/>
<circle cx="121.49" cy="359.15" r="1.77" fill="#000" opacity="0.592"/>
<circle cx="313.00" cy="370.68" r="3.70" fill="#000" opacity="0.795"/>
<circle cx="355.72" cy="307.06" r="3.69" fill="#000" opacity="0.726"/>
<circle cx="266.45" cy="452.83" r="4.11" fill="#000" opacity="0.509"/>
<circle cx="174.16" cy="408.73" r="1.87" fill="#000" opacity="0.385"/>
<circle cx="169.09" cy="266.97" r="3.29" fill="#000" opacity="0.865"/>
<circle cx="220.36" cy="386.38" r="3.28" fill="#000" opacity="0.790"/>
</g>
<g id="eyes">
<g id="left_eye">
<circle cx="190.00" cy="220.00" r="12.00" fill="#000" opacity="1.000"/>
<circle cx="190.00" cy="220.00" r="5.00" fill="#fff" opacity="0.000"/>
</g>
<g id="right_eye">
<circle cx="322.00" cy="220.00" r="12.00" fill="#000" opacity="1.000"/>
<circle cx="322.00" cy="220.00" r="5.00" fill="#fff" opacity="0.000"/>
</g>
<g id="pupils">
<circle cx="190.00" cy="222.00" r="6.00" fill="#000" opacity="1.000"/>
<circle cx="322.00" cy="222.00" r="6.00" fill="#000" opacity="1.000"/>
</g>
</g>
<g id="mouth">
<path id="mouth_line" d="M205 318 Q256 345 307 318" fill="none" stroke="#000" stroke-width="10" stroke-linecap="round"/>
</g>
</g>
</svg>
